<svg id="Layer_1" data-name="Layer 1" xmlns="http://www.w3.org/2000/svg" viewBox="0 0 537.64 294.84"><defs><style>.cls-1{fill:#fff;}.cls-16,.cls-2,.cls-3,.cls-4{fill:none;stroke:#000;stroke-miterlimit:10;}.cls-2,.cls-4{stroke-width:0.5px;}.cls-15,.cls-2{opacity:0.1;}.cls-4{stroke-dasharray:1;opacity:0.3;}.cls-5{fill:#ff0051;}.cls-6{fill:#008bfb;}.cls-7{fill:#8f37bb;}.cls-8{fill:#007bf4;}.cls-9{fill:#6f52d4;}.cls-10{fill:#cd0095;}.cls-11{fill:#f70069;}.cls-12{fill:#3769e8;}.cls-13{fill:#e60080;}.cls-14{fill:#ae13a6;}.cls-16{stroke-width:17px;}.cls-17{opacity:0.4;}</style></defs><rect class="cls-1" width="537.64" height="294.84"/><path d="M399.26,154.64c0,2.77-1.69,4.26-3.75,4.26s-3.63-1.67-3.63-4.12,1.58-4.24,3.74-4.24S399.26,152.23,399.26,154.64Zm-6.28.12c0,1.74.93,3.28,2.59,3.28s2.59-1.52,2.59-3.35c0-1.62-.84-3.3-2.58-3.3S393,153,393,154.76Z"/><path d="M405.48,157.17c0,.61,0,1.14,0,1.59h-.94l-.06-.94h0a2.2,2.2,0,0,1-1.92,1.08c-.91,0-2-.52-2-2.55V153h1.05v3.2c0,1.11.35,1.86,1.3,1.86a1.52,1.52,0,0,0,1.39-1,1.45,1.45,0,0,0,.09-.54V153h1.06Z"/><path d="M408.51,151.57V153H410v.8h-1.51v3.13c0,.72.2,1.13.79,1.13a2,2,0,0,0,.61-.07l0,.8a3,3,0,0,1-.94.15,1.49,1.49,0,0,1-1.14-.45,2.25,2.25,0,0,1-.41-1.52v-3.17h-.9V153h.9v-1.08Z"/><path d="M411.21,154.85c0-.74,0-1.34,0-1.89h.93l.06,1h0a2.26,2.26,0,0,1,2.06-1.11c1.42,0,2.47,1.19,2.47,2.94,0,2.09-1.28,3.12-2.65,3.12a2.05,2.05,0,0,1-1.79-.91h0v3.15h-1Zm1,1.55a1.45,1.45,0,0,0,.05.43,1.61,1.61,0,0,0,1.58,1.24c1.12,0,1.76-.91,1.76-2.24,0-1.16-.61-2.15-1.72-2.15a1.66,1.66,0,0,0-1.6,1.29,2.17,2.17,0,0,0-.07.42Z"/><path d="M422.89,157.17c0,.61,0,1.14.05,1.59H422l-.06-.94h0A2.18,2.18,0,0,1,420,158.9c-.91,0-2-.52-2-2.55V153h1.05v3.2c0,1.11.35,1.86,1.3,1.86a1.51,1.51,0,0,0,1.39-1,1.44,1.44,0,0,0,.1-.54V153h1.05Z"/><path d="M425.92,151.57V153h1.51v.8h-1.51v3.13c0,.72.2,1.13.79,1.13a1.88,1.88,0,0,0,.61-.07l.05.8a2.9,2.9,0,0,1-.94.15,1.51,1.51,0,0,1-1.14-.45,2.3,2.3,0,0,1-.4-1.52v-3.17H424V153h.9v-1.08Z"/><path d="M430.77,154.72V154H437v.72Zm0,2.35v-.72H437v.72Z"/><path d="M445.71,154.78c0,2.65-1,4.12-2.71,4.12-1.52,0-2.56-1.43-2.59-4s1.14-4,2.73-4S445.71,152.3,445.71,154.78Zm-4.23.12c0,2,.63,3.18,1.58,3.18s1.59-1.26,1.59-3.25-.48-3.18-1.59-3.18C442.15,151.65,441.48,152.78,441.48,154.9Z"/><path d="M446.76,158.14a.71.71,0,0,1,.72-.75.7.7,0,0,1,.71.75.72.72,0,1,1-1.43,0Z"/><path d="M452.42,158.76v-2.13H448.8V156l3.48-5h1.14v4.84h1.09v.82h-1.09v2.13Zm0-2.95v-2.6c0-.41,0-.81,0-1.22h0c-.24.45-.43.79-.64,1.15l-1.91,2.65v0Z"/><line class="cls-2" x1="378.19" y1="188.18" x2="466.48" y2="188.18"/><line class="cls-3" x1="434.85" y1="176.03" x2="434.85" y2="164.64"/><polygon points="437.31 166.63 436.87 167.03 434.85 164.87 432.84 167.03 432.4 166.63 434.85 163.99 437.31 166.63"/><line class="cls-4" x1="386.54" y1="188.36" x2="386.54" y2="210.97"/><line class="cls-2" x1="377.89" y1="210.7" x2="466.17" y2="210.7"/><line class="cls-2" x1="377.68" y1="233.22" x2="465.96" y2="233.22"/><line class="cls-2" x1="377.68" y1="255.14" x2="465.96" y2="255.14"/><line class="cls-4" x1="423.11" y1="210.34" x2="423.11" y2="233.08"/><line class="cls-4" x1="411.03" y1="233.27" x2="411.03" y2="255.18"/><line class="cls-4" x1="398.94" y1="254.76" x2="398.94" y2="267.05"/><path d="M466,178.06v88.42H377.61V178.06H466m2-2H375.61v92.42H468V176.06Z"/><polyline class="cls-5" points="398.95 248.66 409.33 248.66 411.03 255.19 409.33 261.71 398.95 261.71"/><path class="cls-1" d="M402.81,253.7v1.88h1.8v.48h-1.8V258h-.52v-1.89h-1.8v-.48h1.8V253.7Z"/><path class="cls-1" d="M405.35,257.54a.48.48,0,0,1,.48-.51.51.51,0,0,1,0,1A.46.46,0,0,1,405.35,257.54Z"/><path class="cls-1" d="M408.48,253.41h0l-.9.49-.14-.54,1.14-.6h.6V258h-.68Z"/><polyline class="cls-6" points="423.11 217.38 388.24 217.38 386.54 210.86 388.24 204.33 423.11 204.33"/><path class="cls-1" d="M401.69,210.78v.52h-2v-.52Z"/><path class="cls-1" d="M405.76,210.54c0,1.77-.67,2.75-1.81,2.75s-1.71-.95-1.73-2.67.76-2.71,1.82-2.71S405.76,208.89,405.76,210.54Zm-2.83.08c0,1.36.42,2.12,1.06,2.12s1.05-.84,1.05-2.16-.32-2.12-1.05-2.12S402.93,209.21,402.93,210.62Z"/><path class="cls-1" d="M406.45,212.78a.48.48,0,0,1,.48-.5.47.47,0,0,1,.48.5.48.48,0,1,1-1,0Z"/><path class="cls-1" d="M408.22,212.4a2.44,2.44,0,0,0,1.15.32c.9,0,1.19-.57,1.18-1,0-.72-.67-1-1.34-1h-.4v-.52h.4c.51,0,1.16-.27,1.16-.88,0-.42-.27-.79-.92-.79a2,2,0,0,0-1,.35l-.19-.52a2.53,2.53,0,0,1,1.37-.4c1,0,1.49.61,1.49,1.24a1.32,1.32,0,0,1-1,1.24h0a1.35,1.35,0,0,1,1.16,1.33c0,.83-.66,1.56-1.9,1.56a2.74,2.74,0,0,1-1.35-.35Z"/><line class="cls-3" x1="398.95" y1="280.52" x2="398.95" y2="269.13"/><polygon points="401.41 271.12 400.97 271.52 398.95 269.36 396.94 271.52 396.5 271.12 398.95 268.48 401.41 271.12"/><path d="M388,284.62a9.1,9.1,0,0,1,1.91-.18,3.3,3.3,0,0,1,2.21.59,1.72,1.72,0,0,1,.68,1.43,1.91,1.91,0,0,1-1.37,1.77v0a2.05,2.05,0,0,1,1.67,2,2.12,2.12,0,0,1-.7,1.62,4,4,0,0,1-2.78.76,11.75,11.75,0,0,1-1.62-.1Zm1.05,3.31h.94c1.09,0,1.74-.59,1.74-1.36,0-.94-.71-1.32-1.76-1.32a4.14,4.14,0,0,0-.92.07Zm0,3.86a5.07,5.07,0,0,0,.87,0c1.08,0,2.08-.39,2.08-1.57s-.95-1.56-2.09-1.56H389Z"/><path d="M398.5,291.19a9.89,9.89,0,0,0,.08,1.4h-.95l-.08-.74h0a2.14,2.14,0,0,1-1.77.87,1.66,1.66,0,0,1-1.78-1.67c0-1.4,1.25-2.17,3.49-2.16v-.12a1.19,1.19,0,0,0-1.32-1.33,2.85,2.85,0,0,0-1.52.43l-.24-.71a3.87,3.87,0,0,1,1.92-.5c1.78,0,2.21,1.21,2.21,2.36Zm-1-1.57c-1.15,0-2.46.18-2.46,1.31a.92.92,0,0,0,1,1,1.47,1.47,0,0,0,1.43-1,1.08,1.08,0,0,0,.05-.34Z"/><path d="M400.06,291.52a3,3,0,0,0,1.4.41c.76,0,1.12-.38,1.12-.87s-.3-.77-1.07-1.05c-1.05-.39-1.55-.95-1.55-1.65a1.8,1.8,0,0,1,2-1.7,2.73,2.73,0,0,1,1.41.36l-.25.77a2.21,2.21,0,0,0-1.19-.35c-.62,0-1,.36-1,.79s.34.7,1.09,1c1,.37,1.53.87,1.53,1.74,0,1-.81,1.75-2.16,1.75a3.3,3.3,0,0,1-1.63-.41Z"/><path d="M405.54,289.87a1.86,1.86,0,0,0,2,2,3.73,3.73,0,0,0,1.61-.3l.19.76a4.86,4.86,0,0,1-1.94.37,2.7,2.7,0,0,1-2.85-2.94c0-1.75,1-3.12,2.72-3.12a2.44,2.44,0,0,1,2.4,2.72,2.72,2.72,0,0,1,0,.49Zm3.1-.75a1.5,1.5,0,0,0-1.47-1.7,1.73,1.73,0,0,0-1.62,1.7Z"/><path d="M413.51,288.59c0-.68,0-1.27-.05-1.81h.93l0,1.15h0a1.75,1.75,0,0,1,1.62-1.27,1.36,1.36,0,0,1,.29,0v1a2,2,0,0,0-.36,0A1.47,1.47,0,0,0,414.6,289a3.68,3.68,0,0,0,0,.49v3.1h-1.06Z"/><path d="M421.45,291.19a9.78,9.78,0,0,0,.09,1.4h-1l-.09-.74h0a2.16,2.16,0,0,1-1.78.87,1.65,1.65,0,0,1-1.77-1.67c0-1.4,1.25-2.17,3.49-2.16v-.12a1.19,1.19,0,0,0-1.32-1.33,2.82,2.82,0,0,0-1.52.43l-.24-.71a3.84,3.84,0,0,1,1.92-.5c1.77,0,2.2,1.21,2.2,2.36Zm-1-1.57c-1.15,0-2.46.18-2.46,1.31a.93.93,0,0,0,1,1,1.45,1.45,0,0,0,1.42-1,1.08,1.08,0,0,0,.05-.34Z"/><path d="M424.38,285.39v1.39h1.51v.8h-1.51v3.13c0,.72.21,1.13.79,1.13a2,2,0,0,0,.62-.07l0,.8a2.59,2.59,0,0,1-.93.15,1.49,1.49,0,0,1-1.14-.45,2.25,2.25,0,0,1-.41-1.52v-3.17h-.9v-.8h.9V285.7Z"/><path d="M427.6,289.87a1.85,1.85,0,0,0,2,2,3.8,3.8,0,0,0,1.61-.3l.19.76a4.86,4.86,0,0,1-1.94.37,2.71,2.71,0,0,1-2.86-2.94c0-1.75,1-3.12,2.72-3.12a2.44,2.44,0,0,1,2.4,2.72,2.93,2.93,0,0,1,0,.49Zm3.09-.75a1.49,1.49,0,0,0-1.46-1.7,1.72,1.72,0,0,0-1.62,1.7Z"/><path d="M435.17,288.54v-.72h6.19v.72Zm0,2.35v-.72h6.19v.72Z"/><path d="M450.12,288.6c0,2.65-1,4.12-2.71,4.12-1.52,0-2.57-1.43-2.59-4s1.14-4,2.72-4S450.12,286.12,450.12,288.6Zm-4.23.12c0,2,.62,3.18,1.58,3.18s1.58-1.26,1.58-3.25-.48-3.18-1.58-3.18C446.56,285.47,445.89,286.6,445.89,288.72Z"/><path d="M451.17,292a.71.71,0,0,1,.72-.75.69.69,0,0,1,.7.75.71.71,0,0,1-.73.76A.7.7,0,0,1,451.17,292Z"/><path d="M455.86,285.77h0l-1.35.73-.21-.8,1.71-.91h.9v7.8h-1Z"/><line class="cls-4" x1="434.85" y1="179.19" x2="434.85" y2="188.57"/><polyline class="cls-5" points="386.54 181.7 433.15 181.7 434.85 188.22 433.15 194.75 386.54 194.75"/><path class="cls-1" d="M405,186.32v1.88h1.8v.48H405v1.89h-.52v-1.89h-1.8v-.48h1.8v-1.88Z"/><path class="cls-1" d="M410.94,187.92c0,1.76-.67,2.74-1.81,2.74s-1.71-.95-1.73-2.67.76-2.7,1.82-2.7S410.94,186.26,410.94,187.92Zm-2.83.08c0,1.35.42,2.12,1.06,2.12s1.05-.84,1.05-2.17-.32-2.12-1.05-2.12S408.11,186.58,408.11,188Z"/><path class="cls-1" d="M411.63,190.16a.48.48,0,0,1,.48-.51.48.48,0,0,1,.48.51.48.48,0,1,1-1,0Z"/><path class="cls-1" d="M415.41,190.57v-1.42H413v-.46l2.32-3.32h.76v3.24h.73v.54h-.73v1.42Zm0-2v-1.74c0-.27,0-.54,0-.82h0c-.16.31-.29.53-.43.77l-1.27,1.77v0Z"/><polyline class="cls-5" points="411.03 226.75 421.41 226.75 423.11 233.28 421.41 239.8 411.03 239.8"/><path class="cls-1" d="M414.14,231.4v1.88H416v.48h-1.81v1.9h-.51v-1.9h-1.8v-.48h1.8V231.4Z"/><path class="cls-1" d="M416.69,235.24a.47.47,0,0,1,.48-.5.46.46,0,0,1,.47.5.47.47,0,0,1-.49.5A.46.46,0,0,1,416.69,235.24Z"/><path class="cls-1" d="M419.82,231.11h0l-.9.49-.14-.53,1.14-.61h.6v5.2h-.68Z"/><rect x="71.34" y="176.63" width="89.42" height="89.42"/><path d="M159.26,178.13v86.42H72.84V178.13h86.42m3-3H69.84v92.42h92.42V175.13Z"/><path class="cls-1" d="M105,221.72c-.08-1.6-.19-3.53-.19-4.94h0c-.41,1.32-.87,2.77-1.45,4.35l-2,5.56h-1.12l-1.87-5.46c-.54-1.63-1-3.1-1.31-4.45h0c0,1.42-.12,3.33-.22,5.06l-.31,4.91H95.06l.8-11.45h1.89l2,5.54c.48,1.41.85,2.67,1.16,3.86h0c.31-1.16.71-2.42,1.22-3.86l2-5.54H106l.71,11.45h-1.46Z"/><path class="cls-1" d="M116.53,222.57a4,4,0,0,1-4.1,4.37,3.92,3.92,0,0,1-3.94-4.23,4,4,0,0,1,4.08-4.35A3.89,3.89,0,0,1,116.53,222.57Zm-6.51.09c0,1.8,1,3.16,2.48,3.16s2.5-1.34,2.5-3.2c0-1.39-.7-3.14-2.47-3.14S110,221.11,110,222.66Z"/><path class="cls-1" d="M125.51,214.68v9.95c0,.73,0,1.56.06,2.12h-1.32l-.07-1.42h-.05a3,3,0,0,1-2.77,1.61c-2,0-3.54-1.68-3.54-4.18,0-2.74,1.7-4.4,3.69-4.4A2.73,2.73,0,0,1,124,219.6h0v-4.92ZM124,221.87a2.62,2.62,0,0,0-.07-.62,2.2,2.2,0,0,0-2.16-1.72c-1.55,0-2.47,1.36-2.47,3.16s.84,3,2.44,3A2.26,2.26,0,0,0,124,224a2.7,2.7,0,0,0,.07-.65Z"/><path class="cls-1" d="M128.84,222.91a2.63,2.63,0,0,0,2.82,2.86,5.34,5.34,0,0,0,2.28-.43l.27,1.07a6.68,6.68,0,0,1-2.75.53,3.83,3.83,0,0,1-4.05-4.16c0-2.49,1.46-4.42,3.86-4.42,2.7,0,3.4,2.34,3.4,3.85a4,4,0,0,1,0,.7Zm4.38-1.07a2.12,2.12,0,0,0-2.07-2.41,2.45,2.45,0,0,0-2.3,2.41Z"/><path class="cls-1" d="M136.52,214.68H138v12.07h-1.5Z"/><line class="cls-3" x1="53.46" y1="187.17" x2="68.45" y2="187.17"/><polygon points="66.46 189.63 66.06 189.19 68.22 187.17 66.06 185.16 66.46 184.72 69.1 187.17 66.46 189.63"/><line class="cls-3" x1="53.46" y1="232.22" x2="68.45" y2="232.22"/><polygon points="66.46 234.67 66.06 234.23 68.22 232.22 66.06 230.2 66.46 229.76 69.1 232.22 66.46 234.67"/><line class="cls-3" x1="53.46" y1="254.13" x2="68.45" y2="254.13"/><polygon points="66.46 256.59 66.06 256.15 68.22 254.13 66.06 252.12 66.46 251.68 69.1 254.13 66.46 256.59"/><path d="M5.92,187.5l-.83,2.55H4L6.76,182H8l2.76,8.09H9.65l-.86-2.55Zm2.67-.81-.81-2.33c-.18-.53-.3-1-.42-1.47h0c-.12.46-.24,1-.41,1.46l-.79,2.34Z"/><path d="M16.75,189.19a3.43,3.43,0,0,1-.83,2.67,3.22,3.22,0,0,1-2.12.69,3.73,3.73,0,0,1-1.93-.48l.26-.81a3.16,3.16,0,0,0,1.7.46c1.08,0,1.87-.56,1.87-2v-.64h0a2.06,2.06,0,0,1-1.85,1,2.59,2.59,0,0,1-2.47-2.83A2.78,2.78,0,0,1,14,184.12a1.93,1.93,0,0,1,1.81,1h0l0-.88h.93c0,.41,0,.89,0,1.58Zm-1.06-2.66a1.38,1.38,0,0,0-.06-.47,1.5,1.5,0,0,0-1.47-1.12c-1,0-1.73.85-1.73,2.19,0,1.14.59,2.09,1.71,2.09a1.54,1.54,0,0,0,1.47-1.08,1.85,1.85,0,0,0,.08-.56Z"/><path d="M19.08,187.33a1.85,1.85,0,0,0,2,2,3.71,3.71,0,0,0,1.6-.3l.2.76a4.88,4.88,0,0,1-1.95.37,2.71,2.71,0,0,1-2.85-2.94c0-1.75,1-3.12,2.72-3.12a2.44,2.44,0,0,1,2.4,2.72,2,2,0,0,1,0,.49Zm3.09-.75a1.49,1.49,0,0,0-1.46-1.7,1.72,1.72,0,0,0-1.62,1.7Z"/><path d="M26.65,186v-.72h6.19V186Zm0,2.35v-.72h6.19v.72Z"/><path d="M40.85,183a4.83,4.83,0,0,0-.79.06,3.14,3.14,0,0,0-2.71,2.76h0a2.38,2.38,0,0,1,4.24,1.61,2.61,2.61,0,0,1-2.6,2.76c-1.66,0-2.75-1.3-2.75-3.32a4.86,4.86,0,0,1,1.32-3.52,4.28,4.28,0,0,1,2.5-1.15,4.73,4.73,0,0,1,.76-.06Zm-.29,4.5A1.59,1.59,0,0,0,39,185.7a1.75,1.75,0,0,0-1.53,1,1,1,0,0,0-.1.46c0,1.28.61,2.24,1.72,2.24C39.94,189.36,40.56,188.61,40.56,187.49Z"/><path d="M47.21,183.14h-3l-.3,2a5,5,0,0,1,.64,0,3.16,3.16,0,0,1,1.68.42,2.21,2.21,0,0,1,1.11,2,2.7,2.7,0,0,1-2.9,2.66,3.83,3.83,0,0,1-1.94-.48l.26-.81a3.4,3.4,0,0,0,1.68.44,1.71,1.71,0,0,0,1.83-1.7c0-1-.68-1.71-2.23-1.71A9.79,9.79,0,0,0,43,186l.5-3.74h3.73Z"/><path d="M13.35,211.21a3.55,3.55,0,0,0,1.86.53c1.07,0,1.69-.56,1.69-1.38s-.43-1.19-1.52-1.59c-1.32-.48-2.13-1.18-2.13-2.31a2.32,2.32,0,0,1,2.61-2.19,3.52,3.52,0,0,1,1.77.4l-.28.85a3,3,0,0,0-1.53-.39c-1.1,0-1.52.66-1.52,1.21,0,.76.49,1.13,1.61,1.56,1.36.53,2.05,1.19,2.05,2.38s-.91,2.34-2.82,2.34a4.13,4.13,0,0,1-2.06-.53Z"/><path d="M20,209.77a1.86,1.86,0,0,0,2,2,3.71,3.71,0,0,0,1.6-.3l.19.75a4.66,4.66,0,0,1-1.94.38A2.7,2.7,0,0,1,19,209.68c0-1.75,1-3.12,2.72-3.12a2.44,2.44,0,0,1,2.4,2.72,2,2,0,0,1,0,.49Zm3.1-.75a1.5,1.5,0,0,0-1.46-1.7A1.72,1.72,0,0,0,20,209Z"/><path d="M25.9,206.68l.83,1.25c.23.32.41.61.6.93h0c.19-.33.38-.63.58-.94l.81-1.24H29.9l-2,2.81,2,3H28.76l-.86-1.31c-.23-.34-.42-.66-.63-1h0c-.19.35-.39.66-.61,1l-.84,1.31H24.63l2.07-3-2-2.84Z"/><path d="M33.12,208.44v-.72h6.19v.72Zm0,2.35v-.72h6.19v.72Z"/><path d="M43.23,204.4h4.36v.88h-3.3V208h3v.87h-3v3.66H43.23Z"/><path d="M5.49,227a9.1,9.1,0,0,1,1.91-.18,3.28,3.28,0,0,1,2.21.59,1.69,1.69,0,0,1,.68,1.42,1.91,1.91,0,0,1-1.37,1.78v0a2.05,2.05,0,0,1,1.67,2,2.14,2.14,0,0,1-.69,1.62,4,4,0,0,1-2.79.76,11.75,11.75,0,0,1-1.62-.1Zm1,3.31h.94c1.1,0,1.74-.59,1.74-1.37,0-.93-.7-1.32-1.76-1.32a4,4,0,0,0-.92.08Zm0,3.86a5.07,5.07,0,0,0,.87.05c1.08,0,2.08-.4,2.08-1.57s-1-1.56-2.09-1.56H6.54Z"/><path d="M12,226.94a11.33,11.33,0,0,1,2-.16,3.34,3.34,0,0,1,2.27.67,2.22,2.22,0,0,1,.7,1.69,2.38,2.38,0,0,1-.62,1.73,3.35,3.35,0,0,1-2.47.89,4.25,4.25,0,0,1-.84-.07v3.23H12Zm1,3.89a3.49,3.49,0,0,0,.86.09c1.26,0,2-.63,2-1.72s-.77-1.59-1.91-1.59a4.32,4.32,0,0,0-1,.08Z"/><path d="M20.49,230.88v-.72h6.19v.72Zm0,2.35v-.72h6.19v.72Z"/><path d="M32.54,228.11h0l-1.36.73L31,228l1.7-.91h.9v7.79h-1Z"/><path d="M37.84,230.82a1.93,1.93,0,0,1-1.24-1.75A2.18,2.18,0,0,1,39,227a2,2,0,0,1,2.28,1.91,2,2,0,0,1-1.3,1.83v0a2.18,2.18,0,0,1,1.57,2,2.39,2.39,0,0,1-2.65,2.27c-1.63,0-2.61-1-2.61-2.1a2.24,2.24,0,0,1,1.55-2.1Zm2.67,2.08c0-.94-.66-1.41-1.72-1.71a1.71,1.71,0,0,0-1.4,1.62A1.44,1.44,0,0,0,39,234.29,1.41,1.41,0,0,0,40.51,232.9ZM37.6,229c0,.78.59,1.2,1.49,1.44A1.55,1.55,0,0,0,40.28,229,1.21,1.21,0,0,0,39,227.75,1.24,1.24,0,0,0,37.6,229Z"/><path d="M47.75,230.94c0,2.65-1,4.12-2.71,4.12-1.52,0-2.56-1.43-2.59-4S43.59,227,45.18,227,47.75,228.46,47.75,230.94Zm-4.23.12c0,2,.62,3.18,1.58,3.18S46.69,233,46.69,231s-.48-3.18-1.59-3.18C44.19,227.81,43.52,228.94,43.52,231.06Z"/><path d="M5.52,249.4a8.93,8.93,0,0,1,1.9-.18,3.27,3.27,0,0,1,2.21.59,1.69,1.69,0,0,1,.68,1.42A1.9,1.9,0,0,1,9,253v0a2,2,0,0,1,1.66,2,2.11,2.11,0,0,1-.69,1.62,4,4,0,0,1-2.78.76,11.75,11.75,0,0,1-1.62-.1Zm1,3.31h1c1.09,0,1.74-.59,1.74-1.37,0-.93-.71-1.32-1.77-1.32a4,4,0,0,0-.92.08Zm0,3.86a5.2,5.2,0,0,0,.88.05c1.08,0,2.07-.4,2.07-1.57s-.95-1.56-2.09-1.56H6.56Z"/><path d="M18.83,253.81c-.06-1.12-.13-2.49-.13-3.49h0c-.29.94-.61,2-1,3.07l-1.43,3.93h-.79l-1.32-3.85c-.38-1.16-.7-2.19-.92-3.15h0c0,1-.08,2.35-.15,3.58l-.22,3.46h-1l.56-8.08H13.7l1.38,3.91c.34,1,.6,1.88.82,2.72h0c.22-.81.5-1.7.86-2.72l1.44-3.91h1.33l.51,8.08H19Z"/><path d="M22.71,249.28v8.08H21.66v-8.08Z"/><path d="M26.65,253.32v-.72h6.19v.72Zm0,2.35V255h6.19v.72Z"/><path d="M39.67,257.36v-2.13H36v-.69l3.48-5h1.14v4.84h1.09v.82H40.66v2.13Zm0-3v-2.6c0-.41,0-.82,0-1.22h0c-.24.45-.43.79-.65,1.15l-1.91,2.65v0Z"/><path d="M47.75,253.38c0,2.65-1,4.11-2.71,4.11-1.52,0-2.56-1.42-2.59-4s1.14-4.05,2.73-4.05S47.75,250.9,47.75,253.38Zm-4.23.12c0,2,.62,3.18,1.58,3.18s1.59-1.26,1.59-3.25-.48-3.18-1.59-3.18C44.19,250.25,43.52,251.38,43.52,253.5Z"/><line class="cls-3" x1="53.46" y1="209.85" x2="68.45" y2="209.85"/><polygon points="66.46 212.3 66.06 211.86 68.22 209.85 66.06 207.83 66.46 207.39 69.1 209.85 66.46 212.3"/><line class="cls-3" x1="483.67" y1="188.79" x2="468.68" y2="188.79"/><polygon points="470.67 186.33 471.07 186.77 468.91 188.79 471.07 190.8 470.67 191.24 468.03 188.79 470.67 186.33"/><line class="cls-3" x1="483.67" y1="233.83" x2="468.68" y2="233.83"/><polygon points="470.67 231.38 471.07 231.82 468.91 233.83 471.07 235.84 470.67 236.28 468.03 233.83 470.67 231.38"/><line class="cls-3" x1="483.67" y1="255.75" x2="468.68" y2="255.75"/><polygon points="470.67 253.29 471.07 253.73 468.91 255.75 471.07 257.76 470.67 258.2 468.03 255.75 470.67 253.29"/><line class="cls-3" x1="483.67" y1="211.46" x2="468.68" y2="211.46"/><polygon points="470.67 209.01 471.07 209.45 468.91 211.46 471.07 213.48 470.67 213.92 468.03 211.46 470.67 209.01"/><path d="M491.68,190.55l-.83,2.54h-1.08l2.75-8.08h1.25l2.76,8.08h-1.11l-.87-2.54Zm2.67-.81-.81-2.33c-.18-.53-.3-1-.42-1.48h0c-.12.47-.24,1-.41,1.47l-.79,2.34Z"/><path d="M502.51,192.24a3.39,3.39,0,0,1-.83,2.66,3.17,3.17,0,0,1-2.12.7,3.73,3.73,0,0,1-1.93-.48l.26-.82a3.07,3.07,0,0,0,1.7.47c1.08,0,1.87-.56,1.87-2v-.63h0a2.06,2.06,0,0,1-1.85,1,2.59,2.59,0,0,1-2.47-2.83,2.78,2.78,0,0,1,2.63-3.07,1.93,1.93,0,0,1,1.81,1h0l0-.87h.93c0,.41,0,.89,0,1.58Zm-1.06-2.66a1.34,1.34,0,0,0-.06-.47,1.5,1.5,0,0,0-1.47-1.13c-1,0-1.73.86-1.73,2.2,0,1.14.59,2.09,1.71,2.09a1.54,1.54,0,0,0,1.47-1.08,1.87,1.87,0,0,0,.08-.57Z"/><path d="M504.84,190.38a1.85,1.85,0,0,0,2,2,3.8,3.8,0,0,0,1.61-.3l.19.75a4.67,4.67,0,0,1-1.95.38,2.71,2.71,0,0,1-2.85-2.94c0-1.75,1-3.12,2.72-3.12a2.44,2.44,0,0,1,2.4,2.72,3,3,0,0,1,0,.49Zm3.09-.75a1.5,1.5,0,0,0-1.46-1.71,1.73,1.73,0,0,0-1.62,1.71Z"/><path d="M512.41,189.05v-.72h6.19v.72Zm0,2.35v-.72h6.19v.72Z"/><path d="M526.62,186a4,4,0,0,0-.8.06,3.13,3.13,0,0,0-2.71,2.76h0a2.38,2.38,0,0,1,4.24,1.61,2.61,2.61,0,0,1-2.6,2.76c-1.66,0-2.75-1.3-2.75-3.33a4.85,4.85,0,0,1,1.32-3.51,4.22,4.22,0,0,1,2.5-1.15,4.76,4.76,0,0,1,.77-.06Zm-.3,4.5a1.59,1.59,0,0,0-1.61-1.79,1.75,1.75,0,0,0-1.53,1,1,1,0,0,0-.1.46c0,1.28.61,2.24,1.72,2.24C525.7,192.41,526.32,191.65,526.32,190.54Z"/><path d="M533,186.19h-3l-.3,2a3.67,3.67,0,0,1,.64,0,3.16,3.16,0,0,1,1.68.42,2.21,2.21,0,0,1,1.11,2,2.7,2.7,0,0,1-2.9,2.67,3.83,3.83,0,0,1-1.94-.48l.26-.81a3.52,3.52,0,0,0,1.68.43,1.7,1.7,0,0,0,1.83-1.69c0-1-.68-1.71-2.23-1.71a7.84,7.84,0,0,0-1.09.07l.51-3.74H533Z"/><path d="M490.25,214.26a3.48,3.48,0,0,0,1.85.53c1.07,0,1.69-.56,1.69-1.38s-.43-1.19-1.52-1.59c-1.32-.48-2.13-1.18-2.13-2.31a2.32,2.32,0,0,1,2.61-2.19,3.69,3.69,0,0,1,1.78.39l-.29.86a2.92,2.92,0,0,0-1.52-.39c-1.11,0-1.53.66-1.53,1.21,0,.76.49,1.13,1.61,1.56,1.37.53,2.05,1.19,2.05,2.38s-.91,2.33-2.82,2.33a4.24,4.24,0,0,1-2.06-.52Z"/><path d="M496.92,212.82a1.85,1.85,0,0,0,2,2,3.71,3.71,0,0,0,1.6-.3l.2.75a4.75,4.75,0,0,1-1.95.37,2.7,2.7,0,0,1-2.85-2.93c0-1.75,1-3.12,2.72-3.12a2.44,2.44,0,0,1,2.4,2.72,2.08,2.08,0,0,1,0,.49Zm3.09-.75a1.5,1.5,0,0,0-1.46-1.71,1.73,1.73,0,0,0-1.62,1.71Z"/><path d="M502.8,209.73l.82,1.25c.23.32.41.61.6.93h0c.19-.33.38-.63.59-.95l.8-1.23h1.15l-2,2.8,2,3h-1.19l-.86-1.3c-.23-.34-.42-.66-.63-1h0c-.19.35-.38.66-.61,1l-.84,1.3h-1.16l2.06-3-2-2.84Z"/><path d="M510,211.49v-.72h6.19v.72Zm0,2.35v-.72h6.19v.72Z"/><path d="M520.12,207.45h4.36v.88h-3.3V211h3.05v.86h-3.05v3.66h-1.06Z"/><path d="M490.38,230a8.93,8.93,0,0,1,1.9-.18,3.27,3.27,0,0,1,2.21.59,1.69,1.69,0,0,1,.68,1.42,1.91,1.91,0,0,1-1.36,1.78v0a2.06,2.06,0,0,1,1.66,2,2.14,2.14,0,0,1-.69,1.62A4,4,0,0,1,492,238a12.11,12.11,0,0,1-1.62-.09Zm1,3.31h.95c1.09,0,1.74-.59,1.74-1.37s-.71-1.32-1.77-1.32a5,5,0,0,0-.92.07Zm0,3.86a5.2,5.2,0,0,0,.88,0c1.08,0,2.07-.4,2.07-1.57s-.95-1.56-2.09-1.56h-.86Z"/><path d="M496.88,230a12.57,12.57,0,0,1,2-.15,3.32,3.32,0,0,1,2.27.67,2.21,2.21,0,0,1,.71,1.69,2.42,2.42,0,0,1-.62,1.73,3.39,3.39,0,0,1-2.48.89,3.63,3.63,0,0,1-.84-.08V238h-1Zm1,3.9a3.52,3.52,0,0,0,.87.09c1.26,0,2-.63,2-1.72s-.77-1.59-1.91-1.59a4.36,4.36,0,0,0-1,.08Z"/><path d="M505.38,233.93v-.72h6.19v.72Zm0,2.35v-.72h6.19v.72Z"/><path d="M517.42,231.16h0l-1.36.73-.2-.8,1.7-.91h.9V238h-1Z"/><path d="M522.73,233.87a1.92,1.92,0,0,1-1.25-1.75A2.19,2.19,0,0,1,523.9,230a2,2,0,0,1,2.28,1.92,2,2,0,0,1-1.29,1.83v0a2.18,2.18,0,0,1,1.57,2,2.4,2.4,0,0,1-2.65,2.26c-1.63,0-2.62-1-2.62-2.1a2.23,2.23,0,0,1,1.55-2.09Zm2.66,2.07c0-.93-.66-1.4-1.71-1.7a1.71,1.71,0,0,0-1.41,1.62,1.45,1.45,0,0,0,1.56,1.48A1.41,1.41,0,0,0,525.39,235.94Zm-2.9-3.89c0,.78.59,1.2,1.49,1.44a1.54,1.54,0,0,0,1.18-1.42,1.21,1.21,0,0,0-1.32-1.27A1.24,1.24,0,0,0,522.49,232.05Z"/><path d="M532.64,234c0,2.65-1,4.11-2.71,4.11-1.53,0-2.57-1.42-2.59-4s1.14-4.06,2.72-4.06S532.64,231.51,532.64,234Zm-4.24.12c0,2,.63,3.18,1.59,3.18s1.58-1.26,1.58-3.25-.48-3.18-1.58-3.18C529.08,230.86,528.4,232,528.4,234.11Z"/><path d="M490.38,252.45a8.93,8.93,0,0,1,1.9-.18,3.27,3.27,0,0,1,2.21.59,1.69,1.69,0,0,1,.68,1.42,1.91,1.91,0,0,1-1.36,1.78v0a2.06,2.06,0,0,1,1.66,2,2.14,2.14,0,0,1-.69,1.62,4,4,0,0,1-2.78.75,12.11,12.11,0,0,1-1.62-.09Zm1,3.31h.95c1.09,0,1.74-.59,1.74-1.37,0-.94-.71-1.32-1.77-1.32a5,5,0,0,0-.92.07Zm0,3.86a5.2,5.2,0,0,0,.88.05c1.08,0,2.07-.4,2.07-1.57s-.95-1.56-2.09-1.56h-.86Z"/><path d="M503.69,256.86c-.06-1.13-.13-2.49-.13-3.49h0c-.29.94-.61,2-1,3.07l-1.43,3.92h-.79L499,256.51c-.38-1.15-.69-2.18-.92-3.14h0c0,1-.08,2.35-.15,3.58l-.22,3.46h-1l.56-8.08h1.33l1.38,3.91c.34,1,.6,1.88.81,2.72h0c.22-.82.5-1.7.86-2.72l1.44-3.91h1.33l.51,8.08h-1Z"/><path d="M507.57,252.33v8.08h-1.05v-8.08Z"/><path d="M511.51,256.37v-.72h6.19v.72Zm0,2.35V258h6.19v.72Z"/><path d="M524.53,260.41v-2.13h-3.62v-.69l3.47-5h1.14v4.84h1.09v.82h-1.09v2.13Zm0-3v-2.6q0-.62,0-1.23h0c-.24.46-.43.8-.65,1.16L522,257.44v0Z"/><path d="M532.61,256.43c0,2.65-1,4.11-2.71,4.11-1.52,0-2.56-1.42-2.59-4s1.14-4.06,2.73-4.06S532.61,254,532.61,256.43Zm-4.23.12c0,2,.62,3.18,1.58,3.18s1.59-1.26,1.59-3.25-.48-3.18-1.59-3.18C529.05,253.3,528.38,254.43,528.38,256.55Z"/><path d="M252.67,120c0-2.86-2.48-4-5.68-5-2.92-1-6-2.28-6-5.71,0-3.13,2.75-5.51,6.46-5.51a11.13,11.13,0,0,1,6.09,1.77l-.55,1.25a10.06,10.06,0,0,0-5.54-1.76c-3.33,0-5.1,2-5.1,4.14,0,2.59,2.38,3.61,5.54,4.7s6.05,2.34,6.05,6c0,3.3-2.82,5.82-6.86,5.82a11.61,11.61,0,0,1-6.5-1.91l.55-1.22a10.67,10.67,0,0,0,6,1.87C250.49,124.46,252.67,122.42,252.67,120Z"/><path d="M272.86,125.38v-10H259.6v10h-1.42V104.13h1.42v10h13.26v-10h1.43v21.25Z"/><path d="M295.81,125.38h-1.46l-2.48-6.63h-10l-2.48,6.63h-1.43l8.13-21.25h1.76Zm-8.9-20-4.56,12.06h9Z"/><path d="M303.84,117.42l-3,0v7.93h-1.43V104.13h4.76c5.37,0,8.13,2.51,8.13,6.39C312.34,115,309.07,117.35,303.84,117.42Zm.37-12h-3.33v10.74l3,0c4.42-.07,7-1.67,7-5.58C310.84,107.36,308.39,105.42,304.21,105.42Z"/><path class="cls-5" d="M303.58,14.54h0a4.87,4.87,0,0,1,4.87,4.88v9.94a4.88,4.88,0,0,1-4.87,4.88h0a4.88,4.88,0,0,1-4.87-4.88V19.42A4.87,4.87,0,0,1,303.58,14.54Z"/><path class="cls-7" d="M298.71,42.8a4.87,4.87,0,0,1,4.87-4.87h0a4.87,4.87,0,0,1,4.87,4.87V66.29a4.88,4.88,0,0,1-4.87,4.88h0a4.88,4.88,0,0,1-4.87-4.88Z"/><path class="cls-8" d="M261.33,49h0a4.88,4.88,0,0,1,4.88,4.87v21a4.88,4.88,0,0,1-4.88,4.87h0a4.87,4.87,0,0,1-4.87-4.87v-21A4.87,4.87,0,0,1,261.33,49Z"/><path class="cls-9" d="M289.5,28.08h0A4.87,4.87,0,0,1,294.37,33V71.22a4.87,4.87,0,0,1-4.87,4.87h0a4.88,4.88,0,0,1-4.88-4.87V33A4.88,4.88,0,0,1,289.5,28.08Z"/><path class="cls-10" d="M261.33,3.46h0a4.88,4.88,0,0,1,4.88,4.88v32.1a4.89,4.89,0,0,1-4.88,4.88h0a4.88,4.88,0,0,1-4.87-4.88V8.34A4.87,4.87,0,0,1,261.33,3.46Z"/><path class="cls-11" d="M289.5,4.69h0a4.88,4.88,0,0,1,4.87,4.88v9.94a4.87,4.87,0,0,1-4.87,4.88h0a4.88,4.88,0,0,1-4.88-4.88V9.57A4.89,4.89,0,0,1,289.5,4.69Z"/><path class="cls-12" d="M275.42,40.39h0a4.87,4.87,0,0,1,4.87,4.88V79.83a4.88,4.88,0,0,1-4.87,4.88h0a4.88,4.88,0,0,1-4.88-4.88V45.27A4.87,4.87,0,0,1,275.42,40.39Z"/><path class="cls-13" d="M275.42,1h0a4.87,4.87,0,0,1,4.87,4.87v26a4.87,4.87,0,0,1-4.87,4.88h0a4.87,4.87,0,0,1-4.88-4.88V5.87A4.87,4.87,0,0,1,275.42,1Z"/><path class="cls-6" d="M247.25,71.17h0a4.88,4.88,0,0,1-4.87-4.88V56.35a4.87,4.87,0,0,1,4.87-4.88h0a4.87,4.87,0,0,1,4.87,4.88v9.94A4.88,4.88,0,0,1,247.25,71.17Z"/><path class="cls-14" d="M252.12,42.9a4.87,4.87,0,0,1-4.87,4.88h0a4.87,4.87,0,0,1-4.87-4.88V19.42a4.87,4.87,0,0,1,4.87-4.88h0a4.87,4.87,0,0,1,4.87,4.88Z"/><g class="cls-15"><line class="cls-16" x1="216.25" y1="218.71" x2="315.99" y2="218.71"/><polygon points="313.91 203.22 313.91 234.2 329.4 218.71 313.91 203.22"/></g><g class="cls-17"><path d="M246.24,218.26h-3.13v2.92h3.51v.87h-4.56V214h4.38v.87h-3.33v2.56h3.13Z"/><path d="M248.43,216.25l.83,1.24c.22.33.4.62.6.94h0c.19-.34.38-.64.59-1l.8-1.23h1.15l-2,2.8,2,3h-1.19l-.86-1.31c-.23-.33-.42-.66-.62-1h0c-.19.34-.38.66-.61,1l-.84,1.31h-1.16l2.06-3-2-2.84Z"/><path d="M253.49,218.14c0-.74,0-1.34,0-1.89h.93l.06,1h0a2.23,2.23,0,0,1,2.06-1.11c1.41,0,2.47,1.18,2.47,2.93,0,2.09-1.28,3.12-2.65,3.12a2,2,0,0,1-1.79-.91h0v3.16h-1Zm1,1.55a2,2,0,0,0,0,.43,1.65,1.65,0,0,0,1.59,1.24c1.11,0,1.76-.92,1.76-2.25,0-1.15-.61-2.14-1.73-2.14a1.65,1.65,0,0,0-1.59,1.29,1.54,1.54,0,0,0-.07.42Z"/><path d="M260.32,213.54h1.06v8.51h-1.06Z"/><path d="M267.23,220.66a9.74,9.74,0,0,0,.08,1.39h-.94l-.09-.73h0a2.16,2.16,0,0,1-1.78.86,1.65,1.65,0,0,1-1.77-1.66c0-1.41,1.24-2.18,3.49-2.16v-.12a1.18,1.18,0,0,0-1.32-1.33,2.74,2.74,0,0,0-1.52.43l-.24-.71a3.7,3.7,0,0,1,1.91-.5c1.78,0,2.21,1.21,2.21,2.36Zm-1-1.57c-1.15,0-2.46.18-2.46,1.31a.93.93,0,0,0,1,1,1.46,1.46,0,0,0,1.42-1,1.06,1.06,0,0,0,0-.33Z"/><path d="M268.94,217.82c0-.61,0-1.09-.05-1.57h.93l.06,1h0a2.15,2.15,0,0,1,1.92-1.08c.8,0,2.05.48,2.05,2.47v3.45h-1.06V218.7c0-.93-.34-1.71-1.34-1.71a1.54,1.54,0,0,0-1.42,1.08,1.75,1.75,0,0,0-.07.49v3.49h-1.05Z"/><path d="M279.67,220.66a9.64,9.64,0,0,0,.09,1.39h-.95l-.08-.73h0a2.14,2.14,0,0,1-1.77.86,1.65,1.65,0,0,1-1.78-1.66c0-1.41,1.25-2.18,3.49-2.16v-.12a1.18,1.18,0,0,0-1.32-1.33,2.76,2.76,0,0,0-1.52.43l-.24-.71a3.77,3.77,0,0,1,1.92-.5c1.77,0,2.2,1.21,2.2,2.36Zm-1-1.57c-1.16,0-2.46.18-2.46,1.31a.92.92,0,0,0,1,1,1.34,1.34,0,0,0,1.48-1.3Z"/><path d="M282.6,214.85v1.4h1.52v.8H282.6v3.13c0,.72.21,1.13.8,1.13a2.32,2.32,0,0,0,.61-.07l.05.8a3,3,0,0,1-.94.14,1.53,1.53,0,0,1-1.14-.44,2.26,2.26,0,0,1-.41-1.52v-3.17h-.9v-.8h.9v-1.08Z"/><path d="M286.48,214.62a.66.66,0,0,1-1.31,0,.65.65,0,0,1,.66-.67A.64.64,0,0,1,286.48,214.62Zm-1.17,7.43v-5.8h1.05v5.8Z"/><path d="M293.37,219.1a2.84,2.84,0,0,1-2.89,3.08,2.77,2.77,0,0,1-2.79-3,2.84,2.84,0,0,1,2.88-3.07A2.75,2.75,0,0,1,293.37,219.1Zm-4.6.06c0,1.27.72,2.23,1.75,2.23s1.77-.95,1.77-2.25c0-1-.5-2.22-1.74-2.22S288.77,218.07,288.77,219.16Z"/><path d="M294.7,217.82c0-.61,0-1.09-.05-1.57h.94l.06,1h0a2.15,2.15,0,0,1,1.92-1.08c.8,0,2.05.48,2.05,2.47v3.45h-1.05V218.7c0-.93-.35-1.71-1.35-1.71a1.52,1.52,0,0,0-1.41,1.08,1.45,1.45,0,0,0-.07.49v3.49H294.7Z"/></g><path d="M91.94,153.72c0,2.77-1.69,4.25-3.75,4.25s-3.63-1.66-3.63-4.11,1.58-4.25,3.74-4.25S91.94,151.31,91.94,153.72Zm-6.28.12c0,1.74.93,3.28,2.59,3.28s2.59-1.52,2.59-3.36c0-1.62-.84-3.29-2.58-3.29S85.66,152.07,85.66,153.84Z"/><path d="M98.16,156.25c0,.61,0,1.14,0,1.59h-.94l-.06-1h0A2.16,2.16,0,0,1,95.27,158c-.91,0-2-.51-2-2.54V152h1v3.2c0,1.1.35,1.86,1.3,1.86a1.51,1.51,0,0,0,1.39-1,1.49,1.49,0,0,0,.09-.54V152h1.06Z"/><path d="M101.19,150.65V152h1.51v.8h-1.51V156c0,.72.2,1.13.79,1.13a2.26,2.26,0,0,0,.61-.07l0,.8a3,3,0,0,1-.94.14,1.49,1.49,0,0,1-1.14-.44,2.25,2.25,0,0,1-.41-1.52v-3.17h-.89V152h.89V151Z"/><path d="M103.89,153.93c0-.74,0-1.34,0-1.89h.93l.06,1h0a2.26,2.26,0,0,1,2.06-1.11c1.42,0,2.47,1.18,2.47,2.94,0,2.08-1.28,3.11-2.65,3.11a2,2,0,0,1-1.79-.91h0v3.16h-1Zm1,1.55a1.45,1.45,0,0,0,0,.43,1.63,1.63,0,0,0,1.58,1.24c1.12,0,1.76-.92,1.76-2.25,0-1.15-.61-2.14-1.72-2.14a1.66,1.66,0,0,0-1.6,1.29,2,2,0,0,0-.07.42Z"/><path d="M115.57,156.25c0,.61,0,1.14.05,1.59h-.94l-.06-1h0a2.16,2.16,0,0,1-1.92,1.08c-.91,0-2-.51-2-2.54V152h1v3.2c0,1.1.35,1.86,1.3,1.86a1.51,1.51,0,0,0,1.39-1,1.49,1.49,0,0,0,.1-.54V152h1Z"/><path d="M118.6,150.65V152h1.51v.8H118.6V156c0,.72.2,1.13.79,1.13A2.21,2.21,0,0,0,120,157l0,.8a3,3,0,0,1-.94.14,1.5,1.5,0,0,1-1.14-.44,2.3,2.3,0,0,1-.4-1.52v-3.17h-.9V152h.9V151Z"/><path d="M123.45,153.8v-.72h6.19v.72Zm0,2.35v-.72h6.19v.72Z"/><path d="M138.4,153.86c0,2.65-1,4.11-2.71,4.11-1.53,0-2.57-1.42-2.6-4s1.14-4.06,2.73-4.06S138.4,151.38,138.4,153.86Zm-4.24.12c0,2,.63,3.18,1.59,3.18s1.58-1.26,1.58-3.25-.48-3.18-1.58-3.18C134.83,150.73,134.16,151.86,134.16,154Z"/><path d="M139.44,157.22a.72.72,0,0,1,.72-.76.76.76,0,1,1-.72.76Z"/><path d="M145.1,157.84v-2.13h-3.62V155l3.48-5h1.14v4.84h1.09v.82H146.1v2.13Zm0-3v-2.6c0-.41,0-.82,0-1.22h0c-.24.45-.43.79-.64,1.15l-1.91,2.65v0Z"/><line class="cls-3" x1="127.53" y1="175.11" x2="127.53" y2="163.71"/><polygon points="129.99 165.7 129.55 166.11 127.53 163.94 125.52 166.11 125.08 165.7 127.53 163.06 129.99 165.7"/><line class="cls-3" x1="91.63" y1="279.6" x2="91.63" y2="268.21"/><polygon points="94.09 270.19 93.65 270.6 91.64 268.44 89.62 270.6 89.18 270.19 91.64 267.56 94.09 270.19"/><path d="M80.63,283.7a9.1,9.1,0,0,1,1.91-.18,3.3,3.3,0,0,1,2.21.59,1.69,1.69,0,0,1,.68,1.42,1.91,1.91,0,0,1-1.37,1.78v0a2.05,2.05,0,0,1,1.67,2A2.12,2.12,0,0,1,85,291a4,4,0,0,1-2.78.76,11.75,11.75,0,0,1-1.62-.1ZM81.68,287h.94c1.09,0,1.74-.59,1.74-1.37s-.71-1.32-1.76-1.32a4,4,0,0,0-.92.08Zm0,3.86a5.07,5.07,0,0,0,.87.05c1.08,0,2.08-.4,2.08-1.57s-.95-1.56-2.09-1.56h-.86Z"/><path d="M91.18,290.27a9.65,9.65,0,0,0,.08,1.39h-1l-.08-.73h0a2.13,2.13,0,0,1-1.77.86,1.65,1.65,0,0,1-1.78-1.66c0-1.41,1.25-2.17,3.49-2.16v-.12a1.18,1.18,0,0,0-1.31-1.33,2.77,2.77,0,0,0-1.53.43l-.24-.71a3.77,3.77,0,0,1,1.92-.5c1.78,0,2.21,1.21,2.21,2.36Zm-1-1.57c-1.15,0-2.46.18-2.46,1.31a.93.93,0,0,0,1,1,1.46,1.46,0,0,0,1.43-1,1.06,1.06,0,0,0,0-.33Z"/><path d="M92.74,290.6a3,3,0,0,0,1.4.4c.76,0,1.12-.37,1.12-.86s-.3-.77-1.07-1.06c-1-.38-1.55-.94-1.55-1.64a1.8,1.8,0,0,1,2-1.7,2.63,2.63,0,0,1,1.41.36l-.25.77a2.21,2.21,0,0,0-1.19-.35c-.62,0-1,.36-1,.79s.34.69,1.1,1c1,.38,1.52.88,1.52,1.74,0,1-.8,1.75-2.16,1.75a3.3,3.3,0,0,1-1.63-.4Z"/><path d="M98.22,289a1.86,1.86,0,0,0,2,2,3.73,3.73,0,0,0,1.61-.3l.19.75a4.69,4.69,0,0,1-1.94.37,2.69,2.69,0,0,1-2.85-2.93c0-1.75,1-3.12,2.72-3.12a2.44,2.44,0,0,1,2.4,2.72,2.08,2.08,0,0,1,0,.49Zm3.1-.75a1.51,1.51,0,0,0-1.47-1.71,1.73,1.73,0,0,0-1.61,1.71Z"/><path d="M106.19,287.67c0-.68,0-1.27,0-1.81h.93l.05,1.15h0a1.76,1.76,0,0,1,1.62-1.27l.29,0v1a1.34,1.34,0,0,0-.36,0,1.48,1.48,0,0,0-1.42,1.35,3.68,3.68,0,0,0,0,.49v3.09h-1.06Z"/><path d="M114.13,290.27a9.54,9.54,0,0,0,.09,1.39h-1l-.08-.73h0a2.14,2.14,0,0,1-1.77.86,1.65,1.65,0,0,1-1.78-1.66c0-1.41,1.25-2.17,3.49-2.16v-.12a1.19,1.19,0,0,0-1.32-1.33,2.76,2.76,0,0,0-1.52.43l-.24-.71a3.77,3.77,0,0,1,1.92-.5c1.77,0,2.2,1.21,2.2,2.36Zm-1-1.57c-1.15,0-2.45.18-2.45,1.31a.93.93,0,0,0,1,1,1.46,1.46,0,0,0,1.43-1,1.4,1.4,0,0,0,0-.33Z"/><path d="M117.06,284.47v1.39h1.51v.8h-1.51v3.13c0,.72.21,1.13.79,1.13a2,2,0,0,0,.62-.07l0,.8a2.88,2.88,0,0,1-.93.14,1.49,1.49,0,0,1-1.14-.44,2.25,2.25,0,0,1-.41-1.52v-3.17h-.9v-.8h.9v-1.08Z"/><path d="M120.28,289a1.85,1.85,0,0,0,2,2,3.76,3.76,0,0,0,1.61-.3l.19.75a4.69,4.69,0,0,1-1.94.37,2.7,2.7,0,0,1-2.86-2.93c0-1.75,1-3.12,2.72-3.12a2.44,2.44,0,0,1,2.4,2.72,3,3,0,0,1,0,.49Zm3.09-.75a1.49,1.49,0,0,0-1.46-1.71,1.74,1.74,0,0,0-1.62,1.71Z"/><path d="M127.85,287.62v-.72H134v.72Zm0,2.35v-.72H134V290Z"/><path d="M142.8,287.68c0,2.65-1,4.11-2.71,4.11-1.52,0-2.57-1.42-2.59-4s1.14-4.05,2.72-4.05S142.8,285.2,142.8,287.68Zm-4.23.12c0,2,.62,3.18,1.58,3.18s1.58-1.26,1.58-3.25-.48-3.18-1.58-3.18C139.24,284.55,138.57,285.68,138.57,287.8Z"/><path d="M143.85,291a.72.72,0,0,1,.72-.76.76.76,0,1,1-.72.76Z"/><path d="M148.54,284.85h0l-1.35.73-.2-.8,1.7-.91h.9v7.79h-1Z"/></svg>