<svg id="Layer_1" data-name="Layer 1" xmlns="http://www.w3.org/2000/svg" viewBox="0 0 537.64 301.63"><defs><style>.cls-1{fill:#fff;}.cls-16,.cls-2,.cls-3,.cls-4{fill:none;stroke:#000;stroke-miterlimit:10;}.cls-2,.cls-4{stroke-width:0.5px;}.cls-15,.cls-2{opacity:0.1;}.cls-4{stroke-dasharray:1;opacity:0.3;}.cls-5{fill:#ff0051;}.cls-6{fill:#008bfb;}.cls-7{fill:#8f37bb;}.cls-8{fill:#007bf4;}.cls-9{fill:#6f52d4;}.cls-10{fill:#cd0095;}.cls-11{fill:#f70069;}.cls-12{fill:#3769e8;}.cls-13{fill:#e60080;}.cls-14{fill:#ae13a6;}.cls-16{stroke-width:17px;}.cls-17{opacity:0.4;}</style></defs><rect class="cls-1" width="537.64" height="301.63" rx="8.05"/><path d="M399.26,158.53c0,2.77-1.69,4.26-3.75,4.26s-3.63-1.67-3.63-4.12,1.58-4.24,3.74-4.24S399.26,156.12,399.26,158.53Zm-6.28.12c0,1.74.93,3.28,2.59,3.28s2.59-1.52,2.59-3.35c0-1.62-.84-3.3-2.58-3.3S393,156.89,393,158.65Z"/><path d="M405.48,161.06c0,.61,0,1.14,0,1.59h-.94l-.06-.94h0a2.2,2.2,0,0,1-1.92,1.08c-.91,0-2-.52-2-2.55v-3.39h1.05v3.2c0,1.11.35,1.86,1.3,1.86a1.52,1.52,0,0,0,1.39-1,1.49,1.49,0,0,0,.09-.54v-3.55h1.06Z"/><path d="M408.51,155.46v1.39H410v.8h-1.51v3.13c0,.72.2,1.13.79,1.13a2,2,0,0,0,.61-.07l0,.8a3,3,0,0,1-.94.15,1.49,1.49,0,0,1-1.14-.45,2.25,2.25,0,0,1-.41-1.52v-3.17h-.9v-.8h.9v-1.08Z"/><path d="M411.21,158.74c0-.74,0-1.34,0-1.89h.93l.06,1h0a2.26,2.26,0,0,1,2.06-1.11c1.42,0,2.47,1.19,2.47,2.94,0,2.08-1.28,3.12-2.65,3.12a2,2,0,0,1-1.79-.92h0V165h-1Zm1,1.55a1.45,1.45,0,0,0,.05.43,1.63,1.63,0,0,0,1.58,1.24c1.12,0,1.76-.91,1.76-2.24,0-1.16-.61-2.15-1.72-2.15a1.66,1.66,0,0,0-1.6,1.29,2.17,2.17,0,0,0-.07.42Z"/><path d="M422.89,161.06c0,.61,0,1.14.05,1.59H422l-.06-.94h0a2.18,2.18,0,0,1-1.92,1.08c-.91,0-2-.52-2-2.55v-3.39h1.05v3.2c0,1.11.35,1.86,1.3,1.86a1.51,1.51,0,0,0,1.39-1,1.49,1.49,0,0,0,.1-.54v-3.55h1.05Z"/><path d="M425.92,155.46v1.39h1.51v.8h-1.51v3.13c0,.72.2,1.13.79,1.13a1.88,1.88,0,0,0,.61-.07l.05.8a2.9,2.9,0,0,1-.94.15,1.51,1.51,0,0,1-1.14-.45,2.3,2.3,0,0,1-.4-1.52v-3.17H424v-.8h.9v-1.08Z"/><path d="M430.77,158.61v-.72H437v.72Zm0,2.35v-.72H437V161Z"/><path d="M445.71,158.67c0,2.65-1,4.12-2.71,4.12-1.52,0-2.56-1.43-2.59-4s1.14-4.05,2.73-4.05S445.71,156.19,445.71,158.67Zm-4.23.12c0,2,.63,3.18,1.58,3.18s1.59-1.26,1.59-3.25-.48-3.18-1.59-3.18C442.15,155.54,441.48,156.67,441.48,158.79Z"/><path d="M446.76,162a.71.71,0,0,1,.72-.75.7.7,0,0,1,.71.75.72.72,0,1,1-1.43,0Z"/><path d="M452.42,162.65v-2.13H448.8v-.68l3.48-5h1.14v4.84h1.09v.82h-1.09v2.13Zm0-3v-2.6c0-.41,0-.81,0-1.22h0c-.24.45-.43.79-.64,1.15l-1.91,2.65v0Z"/><line class="cls-2" x1="378.19" y1="192.07" x2="466.48" y2="192.07"/><line class="cls-3" x1="434.85" y1="179.92" x2="434.85" y2="168.53"/><polygon points="437.31 170.51 436.87 170.92 434.85 168.76 432.84 170.92 432.4 170.51 434.85 167.88 437.31 170.51"/><line class="cls-4" x1="386.54" y1="192.25" x2="386.54" y2="214.86"/><line class="cls-2" x1="377.89" y1="214.59" x2="466.17" y2="214.59"/><line class="cls-2" x1="377.68" y1="237.11" x2="465.96" y2="237.11"/><line class="cls-2" x1="377.68" y1="259.03" x2="465.96" y2="259.03"/><line class="cls-4" x1="423.11" y1="214.23" x2="423.11" y2="236.97"/><line class="cls-4" x1="411.03" y1="237.16" x2="411.03" y2="259.07"/><line class="cls-4" x1="398.94" y1="258.65" x2="398.94" y2="270.94"/><path d="M466,182v88.42H377.61V182H466m2-2H375.61v92.42H468V180Z"/><polyline class="cls-5" points="398.95 252.55 409.33 252.55 411.03 259.07 409.33 265.6 398.95 265.6"/><path class="cls-1" d="M402.81,257.59v1.88h1.8V260h-1.8v1.89h-.52V260h-1.8v-.48h1.8v-1.88Z"/><path class="cls-1" d="M405.35,261.43a.48.48,0,0,1,.48-.51.47.47,0,0,1,.47.51.48.48,0,0,1-.49.5A.47.47,0,0,1,405.35,261.43Z"/><path class="cls-1" d="M408.48,257.3h0l-.9.49-.14-.54,1.14-.6h.6v5.19h-.68Z"/><polyline class="cls-6" points="423.11 221.27 388.24 221.27 386.54 214.75 388.24 208.22 423.11 208.22"/><path class="cls-1" d="M401.69,214.67v.52h-2v-.52Z"/><path class="cls-1" d="M405.76,214.43c0,1.77-.67,2.75-1.81,2.75s-1.71-1-1.73-2.67.76-2.71,1.82-2.71S405.76,212.78,405.76,214.43Zm-2.83.08c0,1.36.42,2.12,1.06,2.12s1.05-.84,1.05-2.16-.32-2.12-1.05-2.12S402.93,213.1,402.93,214.51Z"/><path class="cls-1" d="M406.45,216.67a.48.48,0,0,1,.48-.5.47.47,0,0,1,.48.5.48.48,0,1,1-1,0Z"/><path class="cls-1" d="M408.22,216.29a2.44,2.44,0,0,0,1.15.32c.9,0,1.19-.57,1.18-1,0-.73-.67-1-1.34-1h-.4V214h.4c.51,0,1.16-.26,1.16-.87,0-.42-.27-.79-.92-.79a2,2,0,0,0-1,.35l-.19-.52a2.53,2.53,0,0,1,1.37-.4c1,0,1.49.61,1.49,1.24a1.32,1.32,0,0,1-1,1.24h0a1.35,1.35,0,0,1,1.16,1.33c0,.83-.66,1.56-1.9,1.56a2.74,2.74,0,0,1-1.35-.35Z"/><line class="cls-3" x1="398.95" y1="284.41" x2="398.95" y2="273.02"/><polygon points="401.41 275.01 400.97 275.42 398.95 273.25 396.94 275.42 396.5 275.01 398.95 272.37 401.41 275.01"/><path d="M388,288.51a9.1,9.1,0,0,1,1.91-.18,3.3,3.3,0,0,1,2.21.59,1.72,1.72,0,0,1,.68,1.43,1.91,1.91,0,0,1-1.37,1.77v0a2.05,2.05,0,0,1,1.67,2,2.12,2.12,0,0,1-.7,1.62,4,4,0,0,1-2.78.76,11.75,11.75,0,0,1-1.62-.1Zm1.05,3.31h.94c1.09,0,1.74-.59,1.74-1.37s-.71-1.31-1.76-1.31a4.14,4.14,0,0,0-.92.07Zm0,3.86a5.07,5.07,0,0,0,.87.05c1.08,0,2.08-.39,2.08-1.57s-.95-1.56-2.09-1.56H389Z"/><path d="M398.5,295.08a9.89,9.89,0,0,0,.08,1.4h-.95l-.08-.74h0a2.14,2.14,0,0,1-1.77.87,1.66,1.66,0,0,1-1.78-1.67c0-1.4,1.25-2.17,3.49-2.16v-.12a1.19,1.19,0,0,0-1.32-1.33,2.85,2.85,0,0,0-1.52.43l-.24-.71a3.77,3.77,0,0,1,1.92-.5c1.78,0,2.21,1.21,2.21,2.36Zm-1-1.57c-1.15,0-2.46.18-2.46,1.31a.92.92,0,0,0,1,1,1.47,1.47,0,0,0,1.43-1,1.08,1.08,0,0,0,.05-.34Z"/><path d="M400.06,295.41a3,3,0,0,0,1.4.41c.76,0,1.12-.38,1.12-.87s-.3-.77-1.07-1.05c-1.05-.39-1.55-.95-1.55-1.65a1.8,1.8,0,0,1,2-1.7,2.73,2.73,0,0,1,1.41.36l-.25.77a2.21,2.21,0,0,0-1.19-.35c-.62,0-1,.36-1,.79s.34.7,1.09,1c1,.37,1.53.87,1.53,1.74,0,1-.81,1.75-2.16,1.75a3.3,3.3,0,0,1-1.63-.41Z"/><path d="M405.54,293.76a1.86,1.86,0,0,0,2,2,3.73,3.73,0,0,0,1.61-.3l.19.76a4.86,4.86,0,0,1-1.94.37,2.7,2.7,0,0,1-2.85-2.94c0-1.75,1-3.12,2.72-3.12a2.44,2.44,0,0,1,2.4,2.72,2.72,2.72,0,0,1,0,.49Zm3.1-.75a1.5,1.5,0,0,0-1.47-1.7,1.73,1.73,0,0,0-1.62,1.7Z"/><path d="M413.51,292.48c0-.68,0-1.27-.05-1.81h.93l0,1.15h0a1.75,1.75,0,0,1,1.62-1.27l.29,0v1a2,2,0,0,0-.36,0,1.47,1.47,0,0,0-1.42,1.34,3.68,3.68,0,0,0,0,.49v3.1h-1.06Z"/><path d="M421.45,295.08a9.78,9.78,0,0,0,.09,1.4h-1l-.09-.74h0a2.16,2.16,0,0,1-1.78.87,1.65,1.65,0,0,1-1.77-1.67c0-1.4,1.25-2.17,3.49-2.16v-.12a1.19,1.19,0,0,0-1.32-1.33,2.82,2.82,0,0,0-1.52.43l-.24-.71a3.74,3.74,0,0,1,1.92-.5c1.77,0,2.2,1.21,2.2,2.36Zm-1-1.57c-1.15,0-2.46.18-2.46,1.31a.93.93,0,0,0,1,1,1.45,1.45,0,0,0,1.42-1,1.08,1.08,0,0,0,.05-.34Z"/><path d="M424.38,289.28v1.39h1.51v.8h-1.51v3.13c0,.72.21,1.13.79,1.13a2,2,0,0,0,.62-.07l0,.8a2.83,2.83,0,0,1-.93.15,1.49,1.49,0,0,1-1.14-.45,2.25,2.25,0,0,1-.41-1.52v-3.17h-.9v-.8h.9v-1.08Z"/><path d="M427.6,293.76a1.85,1.85,0,0,0,2,2,3.8,3.8,0,0,0,1.61-.3l.19.76a4.86,4.86,0,0,1-1.94.37,2.71,2.71,0,0,1-2.86-2.94c0-1.75,1-3.12,2.72-3.12a2.44,2.44,0,0,1,2.4,2.72,2.93,2.93,0,0,1,0,.49Zm3.09-.75a1.49,1.49,0,0,0-1.46-1.7,1.72,1.72,0,0,0-1.62,1.7Z"/><path d="M435.17,292.43v-.72h6.19v.72Zm0,2.35v-.72h6.19v.72Z"/><path d="M450.12,292.49c0,2.65-1,4.12-2.71,4.12-1.52,0-2.57-1.43-2.59-4s1.14-4.05,2.72-4.05S450.12,290,450.12,292.49Zm-4.23.12c0,2,.62,3.18,1.58,3.18s1.58-1.26,1.58-3.25-.48-3.18-1.58-3.18C446.56,289.36,445.89,290.49,445.89,292.61Z"/><path d="M451.17,295.85a.71.71,0,0,1,.72-.75.69.69,0,0,1,.7.75.71.71,0,0,1-.73.76A.7.7,0,0,1,451.17,295.85Z"/><path d="M455.86,289.66h0l-1.35.73-.21-.8,1.71-.91h.9v7.8h-1Z"/><line class="cls-4" x1="434.85" y1="183.08" x2="434.85" y2="192.46"/><polyline class="cls-5" points="386.54 185.59 433.15 185.59 434.85 192.12 433.15 198.64 386.54 198.64"/><path class="cls-1" d="M405,190.21v1.88h1.8v.48H405v1.89h-.52v-1.89h-1.8v-.48h1.8v-1.88Z"/><path class="cls-1" d="M410.94,191.81c0,1.76-.67,2.74-1.81,2.74s-1.71-1-1.73-2.67.76-2.7,1.82-2.7S410.94,190.15,410.94,191.81Zm-2.83.08c0,1.35.42,2.12,1.06,2.12s1.05-.84,1.05-2.17-.32-2.12-1.05-2.12S408.11,190.47,408.11,191.89Z"/><path class="cls-1" d="M411.63,194.05a.48.48,0,0,1,.48-.51.48.48,0,0,1,.48.51.48.48,0,1,1-1,0Z"/><path class="cls-1" d="M415.41,194.46V193H413v-.46l2.32-3.32h.76v3.23h.73V193h-.73v1.42Zm0-2v-1.73c0-.27,0-.54,0-.82h0c-.16.31-.29.53-.43.77l-1.27,1.77h1.7Z"/><polyline class="cls-5" points="411.03 230.64 421.41 230.64 423.11 237.16 421.41 243.69 411.03 243.69"/><path class="cls-1" d="M414.14,235.29v1.88H416v.48h-1.81v1.9h-.51v-1.9h-1.8v-.48h1.8v-1.88Z"/><path class="cls-1" d="M416.69,239.13a.47.47,0,0,1,.48-.5.46.46,0,0,1,.47.5.47.47,0,0,1-.49.5A.46.46,0,0,1,416.69,239.13Z"/><path class="cls-1" d="M419.82,235h0l-.9.49-.14-.53,1.14-.61h.6v5.2h-.68Z"/><rect x="71.34" y="180.52" width="89.42" height="89.42"/><path d="M159.26,182v86.42H72.84V182h86.42m3-3H69.84v92.42h92.42V179Z"/><path class="cls-1" d="M105,225.61c-.08-1.6-.19-3.54-.19-5h0c-.41,1.33-.87,2.78-1.45,4.36l-2,5.55h-1.12l-1.87-5.45c-.54-1.63-1-3.1-1.31-4.46h0c0,1.43-.12,3.34-.22,5.07l-.31,4.91H95.06l.8-11.45h1.89l2,5.54c.48,1.41.85,2.67,1.16,3.86h0c.31-1.16.71-2.42,1.22-3.86l2-5.54H106l.71,11.45h-1.46Z"/><path class="cls-1" d="M116.53,226.46a4,4,0,0,1-4.1,4.37,3.92,3.92,0,0,1-3.94-4.23,4,4,0,0,1,4.08-4.35A3.89,3.89,0,0,1,116.53,226.46Zm-6.51.09c0,1.8,1,3.16,2.48,3.16s2.5-1.34,2.5-3.2c0-1.39-.7-3.14-2.47-3.14S110,225,110,226.55Z"/><path class="cls-1" d="M125.51,218.57v10c0,.73,0,1.56.06,2.12h-1.32l-.07-1.43h-.05a3,3,0,0,1-2.77,1.62c-2,0-3.54-1.68-3.54-4.18,0-2.74,1.7-4.4,3.69-4.4a2.73,2.73,0,0,1,2.48,1.24h0v-4.92ZM124,225.76a2.62,2.62,0,0,0-.07-.62,2.2,2.2,0,0,0-2.16-1.72c-1.55,0-2.47,1.36-2.47,3.16s.84,3,2.44,3a2.26,2.26,0,0,0,2.19-1.78,2.7,2.7,0,0,0,.07-.65Z"/><path class="cls-1" d="M128.84,226.8a2.63,2.63,0,0,0,2.82,2.86,5.34,5.34,0,0,0,2.28-.43l.27,1.07a6.68,6.68,0,0,1-2.75.53,3.83,3.83,0,0,1-4.05-4.17c0-2.48,1.46-4.41,3.86-4.41,2.7,0,3.4,2.34,3.4,3.85a4,4,0,0,1,0,.7Zm4.38-1.07a2.12,2.12,0,0,0-2.07-2.41,2.45,2.45,0,0,0-2.3,2.41Z"/><path class="cls-1" d="M136.52,218.57H138v12.07h-1.5Z"/><line class="cls-3" x1="53.46" y1="191.06" x2="68.45" y2="191.06"/><polygon points="66.46 193.52 66.06 193.08 68.22 191.06 66.06 189.05 66.46 188.61 69.1 191.06 66.46 193.52"/><line class="cls-3" x1="53.46" y1="236.11" x2="68.45" y2="236.11"/><polygon points="66.46 238.56 66.06 238.12 68.22 236.11 66.06 234.09 66.46 233.65 69.1 236.11 66.46 238.56"/><line class="cls-3" x1="53.46" y1="258.02" x2="68.45" y2="258.02"/><polygon points="66.46 260.48 66.06 260.04 68.22 258.02 66.06 256.01 66.46 255.57 69.1 258.02 66.46 260.48"/><path d="M5.92,191.39l-.83,2.55H4l2.75-8.09H8l2.76,8.09H9.65l-.86-2.55Zm2.67-.81-.81-2.33c-.18-.53-.3-1-.42-1.47h0c-.12.46-.24,1-.41,1.46l-.79,2.34Z"/><path d="M16.75,193.08a3.43,3.43,0,0,1-.83,2.67,3.22,3.22,0,0,1-2.12.69,3.73,3.73,0,0,1-1.93-.48l.26-.81a3.16,3.16,0,0,0,1.7.46c1.08,0,1.87-.56,1.87-2v-.64h0a2.06,2.06,0,0,1-1.85,1,2.59,2.59,0,0,1-2.47-2.83A2.78,2.78,0,0,1,14,188a1.93,1.93,0,0,1,1.81,1h0l0-.88h.93c0,.41,0,.89,0,1.58Zm-1.06-2.66a1.38,1.38,0,0,0-.06-.47,1.5,1.5,0,0,0-1.47-1.12c-1,0-1.73.85-1.73,2.19,0,1.14.59,2.09,1.71,2.09A1.54,1.54,0,0,0,15.61,192a1.87,1.87,0,0,0,.08-.57Z"/><path d="M19.08,191.22a1.85,1.85,0,0,0,2,2,3.71,3.71,0,0,0,1.6-.3l.2.76a4.88,4.88,0,0,1-1.95.37,2.71,2.71,0,0,1-2.85-2.94c0-1.75,1-3.12,2.72-3.12a2.44,2.44,0,0,1,2.4,2.72,2,2,0,0,1,0,.49Zm3.09-.75a1.49,1.49,0,0,0-1.46-1.7,1.72,1.72,0,0,0-1.62,1.7Z"/><path d="M26.65,189.89v-.72h6.19v.72Zm0,2.35v-.72h6.19v.72Z"/><path d="M40.85,186.88a4.83,4.83,0,0,0-.79.06,3.14,3.14,0,0,0-2.71,2.76h0a2.38,2.38,0,0,1,4.24,1.61,2.61,2.61,0,0,1-2.6,2.76c-1.66,0-2.75-1.3-2.75-3.33a4.85,4.85,0,0,1,1.32-3.51,4.28,4.28,0,0,1,2.5-1.15,4.73,4.73,0,0,1,.76-.06Zm-.29,4.5A1.59,1.59,0,0,0,39,189.59a1.75,1.75,0,0,0-1.53,1,1,1,0,0,0-.1.46c0,1.28.61,2.24,1.72,2.24C39.94,193.25,40.56,192.5,40.56,191.38Z"/><path d="M47.21,187h-3l-.3,2a5,5,0,0,1,.64,0,3.16,3.16,0,0,1,1.68.42,2.21,2.21,0,0,1,1.11,2,2.7,2.7,0,0,1-2.9,2.66,3.83,3.83,0,0,1-1.94-.48l.26-.81a3.4,3.4,0,0,0,1.68.44,1.71,1.71,0,0,0,1.83-1.7c0-1-.68-1.71-2.23-1.71a9.79,9.79,0,0,0-1.09.07l.5-3.74h3.73Z"/><path d="M13.35,215.1a3.55,3.55,0,0,0,1.86.53c1.07,0,1.69-.56,1.69-1.38s-.43-1.19-1.52-1.59c-1.32-.48-2.13-1.18-2.13-2.31a2.32,2.32,0,0,1,2.61-2.19,3.52,3.52,0,0,1,1.77.4l-.28.85a3,3,0,0,0-1.53-.39c-1.1,0-1.52.66-1.52,1.21,0,.76.49,1.13,1.61,1.56,1.36.53,2.05,1.19,2.05,2.38s-.91,2.34-2.82,2.34a4.13,4.13,0,0,1-2.06-.53Z"/><path d="M20,213.66a1.86,1.86,0,0,0,2,2,3.71,3.71,0,0,0,1.6-.3l.19.75a4.66,4.66,0,0,1-1.94.38A2.7,2.7,0,0,1,19,213.57c0-1.75,1-3.12,2.72-3.12a2.44,2.44,0,0,1,2.4,2.72,2.08,2.08,0,0,1,0,.49Zm3.1-.75a1.5,1.5,0,0,0-1.46-1.7,1.72,1.72,0,0,0-1.62,1.7Z"/><path d="M25.9,210.57l.83,1.25c.23.32.41.61.6.93h0c.19-.33.38-.63.58-.94l.81-1.24H29.9l-2,2.81,2,3H28.76l-.86-1.3c-.23-.34-.42-.66-.63-1h0c-.19.35-.39.66-.61,1l-.84,1.3H24.63l2.07-3-2-2.84Z"/><path d="M33.12,212.33v-.72h6.19v.72Zm0,2.35V214h6.19v.72Z"/><path d="M43.23,208.29h4.36v.88h-3.3v2.68h3v.87h-3v3.65H43.23Z"/><path d="M5.49,230.85a9.1,9.1,0,0,1,1.91-.18,3.28,3.28,0,0,1,2.21.59,1.69,1.69,0,0,1,.68,1.42,1.91,1.91,0,0,1-1.37,1.78v0a2.05,2.05,0,0,1,1.67,2,2.14,2.14,0,0,1-.69,1.62,4,4,0,0,1-2.79.76,11.75,11.75,0,0,1-1.62-.1Zm1,3.31h.94c1.1,0,1.74-.59,1.74-1.37s-.7-1.32-1.76-1.32a4,4,0,0,0-.92.08Zm0,3.86a5.07,5.07,0,0,0,.87,0c1.08,0,2.08-.4,2.08-1.57s-1-1.56-2.09-1.56H6.54Z"/><path d="M12,230.83a11.33,11.33,0,0,1,2-.16,3.34,3.34,0,0,1,2.27.67A2.22,2.22,0,0,1,17,233a2.38,2.38,0,0,1-.62,1.73,3.35,3.35,0,0,1-2.47.89,3.58,3.58,0,0,1-.84-.08v3.24H12Zm1,3.89a3.49,3.49,0,0,0,.86.09c1.26,0,2-.63,2-1.72s-.77-1.59-1.91-1.59a4.32,4.32,0,0,0-1,.08Z"/><path d="M20.49,234.77v-.72h6.19v.72Zm0,2.35v-.72h6.19v.72Z"/><path d="M32.54,232h0l-1.36.73-.2-.8,1.7-.91h.9v7.79h-1Z"/><path d="M37.84,234.71A1.93,1.93,0,0,1,36.6,233,2.18,2.18,0,0,1,39,230.89a1.94,1.94,0,0,1,1,3.74v0a2.18,2.18,0,0,1,1.57,2A2.39,2.39,0,0,1,38.92,239c-1.63,0-2.61-1-2.61-2.1a2.24,2.24,0,0,1,1.55-2.1Zm2.67,2.08c0-.94-.66-1.41-1.72-1.71a1.71,1.71,0,0,0-1.4,1.62A1.44,1.44,0,0,0,39,238.18,1.41,1.41,0,0,0,40.51,236.79Zm-2.91-3.9c0,.78.59,1.2,1.49,1.44a1.55,1.55,0,0,0,1.19-1.42A1.21,1.21,0,0,0,39,231.64,1.24,1.24,0,0,0,37.6,232.89Z"/><path d="M47.75,234.83c0,2.65-1,4.12-2.71,4.12-1.52,0-2.56-1.43-2.59-4s1.14-4.05,2.73-4.05S47.75,232.35,47.75,234.83Zm-4.23.12c0,2,.62,3.18,1.58,3.18s1.59-1.26,1.59-3.25-.48-3.18-1.59-3.18C44.19,231.7,43.52,232.83,43.52,235Z"/><path d="M5.52,253.29a8.93,8.93,0,0,1,1.9-.18,3.27,3.27,0,0,1,2.21.59,1.69,1.69,0,0,1,.68,1.42A1.9,1.9,0,0,1,9,256.9v0a2,2,0,0,1,1.66,2,2.11,2.11,0,0,1-.69,1.62,4,4,0,0,1-2.78.75,12.11,12.11,0,0,1-1.62-.09Zm1,3.31h1c1.09,0,1.74-.59,1.74-1.37s-.71-1.32-1.77-1.32a4,4,0,0,0-.92.08Zm0,3.86a5.2,5.2,0,0,0,.88.05c1.08,0,2.07-.4,2.07-1.57s-.95-1.56-2.09-1.56H6.56Z"/><path d="M18.83,257.7c-.06-1.13-.13-2.49-.13-3.49h0c-.29.94-.61,2-1,3.07l-1.43,3.92h-.79l-1.32-3.84c-.38-1.16-.7-2.19-.92-3.15h0c0,1-.08,2.35-.15,3.58l-.22,3.46h-1l.56-8.08H13.7l1.38,3.91c.34,1,.6,1.88.82,2.72h0c.22-.81.5-1.7.86-2.72l1.44-3.91h1.33l.51,8.08H19Z"/><path d="M22.71,253.17v8.08H21.66v-8.08Z"/><path d="M26.65,257.21v-.72h6.19v.72Zm0,2.35v-.72h6.19v.72Z"/><path d="M39.67,261.25v-2.13H36v-.69l3.48-5h1.14v4.84h1.09v.82H40.66v2.13Zm0-2.95v-2.6c0-.41,0-.82,0-1.22h0c-.24.45-.43.79-.65,1.15l-1.91,2.65v0Z"/><path d="M47.75,257.27c0,2.65-1,4.11-2.71,4.11-1.52,0-2.56-1.42-2.59-4s1.14-4.06,2.73-4.06S47.75,254.79,47.75,257.27Zm-4.23.12c0,2,.62,3.18,1.58,3.18s1.59-1.26,1.59-3.25-.48-3.18-1.59-3.18C44.19,254.14,43.52,255.27,43.52,257.39Z"/><line class="cls-3" x1="53.46" y1="213.74" x2="68.45" y2="213.74"/><polygon points="66.46 216.19 66.06 215.75 68.22 213.74 66.06 211.72 66.46 211.28 69.1 213.74 66.46 216.19"/><line class="cls-3" x1="483.67" y1="192.68" x2="468.68" y2="192.68"/><polygon points="470.67 190.22 471.07 190.66 468.91 192.68 471.07 194.69 470.67 195.13 468.03 192.68 470.67 190.22"/><line class="cls-3" x1="483.67" y1="237.72" x2="468.68" y2="237.72"/><polygon points="470.67 235.27 471.07 235.71 468.91 237.72 471.07 239.74 470.67 240.17 468.03 237.72 470.67 235.27"/><line class="cls-3" x1="483.67" y1="259.64" x2="468.68" y2="259.64"/><polygon points="470.67 257.18 471.07 257.62 468.91 259.64 471.07 261.65 470.67 262.09 468.03 259.64 470.67 257.18"/><line class="cls-3" x1="483.67" y1="215.35" x2="468.68" y2="215.35"/><polygon points="470.67 212.9 471.07 213.34 468.91 215.35 471.07 217.37 470.67 217.81 468.03 215.35 470.67 212.9"/><path d="M491.68,194.44l-.83,2.54h-1.08l2.75-8.08h1.25l2.76,8.08h-1.11l-.87-2.54Zm2.67-.82-.81-2.32c-.18-.53-.3-1-.42-1.48h0c-.12.47-.24,1-.41,1.47l-.79,2.33Z"/><path d="M502.51,196.13a3.39,3.39,0,0,1-.83,2.66,3.17,3.17,0,0,1-2.12.7,3.73,3.73,0,0,1-1.93-.48l.26-.82a3.07,3.07,0,0,0,1.7.47c1.08,0,1.87-.56,1.87-2V196h0a2.06,2.06,0,0,1-1.85,1,2.59,2.59,0,0,1-2.47-2.83,2.78,2.78,0,0,1,2.63-3.07,1.93,1.93,0,0,1,1.81,1h0l0-.87h.93c0,.41,0,.89,0,1.58Zm-1.06-2.66a1.34,1.34,0,0,0-.06-.47,1.5,1.5,0,0,0-1.47-1.13c-1,0-1.73.86-1.73,2.2,0,1.14.59,2.09,1.71,2.09a1.54,1.54,0,0,0,1.47-1.08,1.87,1.87,0,0,0,.08-.57Z"/><path d="M504.84,194.27a1.85,1.85,0,0,0,2,2,3.8,3.8,0,0,0,1.61-.3l.19.75a4.67,4.67,0,0,1-1.95.38,2.71,2.71,0,0,1-2.85-2.94c0-1.75,1-3.12,2.72-3.12a2.44,2.44,0,0,1,2.4,2.72,3,3,0,0,1,0,.49Zm3.09-.75a1.5,1.5,0,0,0-1.46-1.71,1.73,1.73,0,0,0-1.62,1.71Z"/><path d="M512.41,192.94v-.72h6.19v.72Zm0,2.35v-.72h6.19v.72Z"/><path d="M526.62,189.93a4,4,0,0,0-.8.06,3.12,3.12,0,0,0-2.71,2.76h0a2.38,2.38,0,0,1,4.24,1.61,2.61,2.61,0,0,1-2.6,2.76c-1.66,0-2.75-1.3-2.75-3.33a4.85,4.85,0,0,1,1.32-3.51,4.22,4.22,0,0,1,2.5-1.15,4.76,4.76,0,0,1,.77-.06Zm-.3,4.5a1.59,1.59,0,0,0-1.61-1.79,1.75,1.75,0,0,0-1.53,1,1,1,0,0,0-.1.46c0,1.28.61,2.24,1.72,2.24C525.7,196.3,526.32,195.54,526.32,194.43Z"/><path d="M533,190.07h-3l-.3,2a3.67,3.67,0,0,1,.64,0,3.16,3.16,0,0,1,1.68.42,2.21,2.21,0,0,1,1.11,2,2.7,2.7,0,0,1-2.9,2.67,3.94,3.94,0,0,1-1.94-.48l.26-.81a3.52,3.52,0,0,0,1.68.43,1.7,1.7,0,0,0,1.83-1.69c0-1-.68-1.71-2.23-1.71a7.84,7.84,0,0,0-1.09.07l.51-3.74H533Z"/><path d="M490.25,218.15a3.48,3.48,0,0,0,1.85.53c1.07,0,1.69-.56,1.69-1.38s-.43-1.19-1.52-1.6c-1.32-.47-2.13-1.17-2.13-2.3a2.32,2.32,0,0,1,2.61-2.19,3.69,3.69,0,0,1,1.78.39l-.29.85a3,3,0,0,0-1.52-.38c-1.11,0-1.53.66-1.53,1.21,0,.76.49,1.13,1.61,1.56,1.37.53,2.05,1.19,2.05,2.38s-.91,2.33-2.82,2.33A4.24,4.24,0,0,1,490,219Z"/><path d="M496.92,216.71a1.85,1.85,0,0,0,2,2,3.71,3.71,0,0,0,1.6-.3l.2.75a4.75,4.75,0,0,1-1.95.37,2.7,2.7,0,0,1-2.85-2.93c0-1.75,1-3.12,2.72-3.12a2.44,2.44,0,0,1,2.4,2.72,2.08,2.08,0,0,1,0,.49ZM500,216a1.5,1.5,0,0,0-1.46-1.71,1.73,1.73,0,0,0-1.62,1.71Z"/><path d="M502.8,213.62l.82,1.25c.23.32.41.61.6.93h0c.19-.34.38-.64.59-1l.8-1.23h1.15l-2,2.8,2,3h-1.19l-.86-1.3c-.23-.34-.42-.66-.63-1h0c-.19.35-.38.66-.61,1l-.84,1.3h-1.16l2.06-3-2-2.84Z"/><path d="M510,215.38v-.72h6.19v.72Zm0,2.35V217h6.19v.72Z"/><path d="M520.12,211.34h4.36v.87h-3.3v2.69h3.05v.86h-3.05v3.66h-1.06Z"/><path d="M490.38,233.9a8.93,8.93,0,0,1,1.9-.18,3.27,3.27,0,0,1,2.21.59,1.69,1.69,0,0,1,.68,1.42,1.91,1.91,0,0,1-1.36,1.78v0a2.06,2.06,0,0,1,1.66,2,2.14,2.14,0,0,1-.69,1.62,4,4,0,0,1-2.78.75,12.11,12.11,0,0,1-1.62-.09Zm1,3.31h.95c1.09,0,1.74-.59,1.74-1.37,0-.93-.71-1.32-1.77-1.32a5,5,0,0,0-.92.07Zm0,3.86a5.2,5.2,0,0,0,.88.05c1.08,0,2.07-.4,2.07-1.57s-.95-1.56-2.09-1.56h-.86Z"/><path d="M496.88,233.87a12.57,12.57,0,0,1,2-.15,3.32,3.32,0,0,1,2.27.67,2.21,2.21,0,0,1,.71,1.69,2.42,2.42,0,0,1-.62,1.73,3.39,3.39,0,0,1-2.48.89,3.63,3.63,0,0,1-.84-.08v3.24h-1Zm1,3.9a3.52,3.52,0,0,0,.87.09c1.26,0,2-.63,2-1.72s-.77-1.6-1.91-1.6a4.21,4.21,0,0,0-1,.09Z"/><path d="M505.38,237.82v-.72h6.19v.72Zm0,2.35v-.72h6.19v.72Z"/><path d="M517.42,235.05h0l-1.36.73-.2-.8,1.7-.91h.9v7.79h-1Z"/><path d="M522.73,237.76a1.92,1.92,0,0,1-1.25-1.75,2.19,2.19,0,0,1,2.42-2.08,2,2,0,0,1,2.28,1.92,2,2,0,0,1-1.29,1.83v0a2.18,2.18,0,0,1,1.57,2,2.4,2.4,0,0,1-2.65,2.26c-1.63,0-2.62-1-2.62-2.1a2.23,2.23,0,0,1,1.55-2.09Zm2.66,2.07c0-.93-.66-1.4-1.71-1.7a1.71,1.71,0,0,0-1.41,1.62,1.45,1.45,0,0,0,1.56,1.48A1.41,1.41,0,0,0,525.39,239.83Zm-2.9-3.89c0,.78.59,1.2,1.49,1.44a1.54,1.54,0,0,0,1.18-1.42,1.21,1.21,0,0,0-1.32-1.27A1.24,1.24,0,0,0,522.49,235.94Z"/><path d="M532.64,237.88c0,2.65-1,4.11-2.71,4.11-1.53,0-2.57-1.42-2.59-4s1.14-4.06,2.72-4.06S532.64,235.4,532.64,237.88Zm-4.24.12c0,2,.63,3.18,1.59,3.18s1.58-1.26,1.58-3.25-.48-3.18-1.58-3.18C529.08,234.75,528.4,235.88,528.4,238Z"/><path d="M490.38,256.34a8.93,8.93,0,0,1,1.9-.18,3.32,3.32,0,0,1,2.21.58,1.72,1.72,0,0,1,.68,1.43,1.91,1.91,0,0,1-1.36,1.78v0a2.06,2.06,0,0,1,1.66,2,2.14,2.14,0,0,1-.69,1.62,4,4,0,0,1-2.78.75,14.11,14.11,0,0,1-1.62-.09Zm1,3.31h.95c1.09,0,1.74-.59,1.74-1.37,0-.94-.71-1.32-1.77-1.32a5,5,0,0,0-.92.07Zm0,3.86a6.52,6.52,0,0,0,.88.05c1.08,0,2.07-.4,2.07-1.57s-.95-1.56-2.09-1.56h-.86Z"/><path d="M503.69,260.75c-.06-1.13-.13-2.49-.13-3.49h0c-.29.94-.61,2-1,3.07l-1.43,3.92h-.79L499,260.4c-.38-1.15-.69-2.18-.92-3.14h0c0,1-.08,2.35-.15,3.57l-.22,3.47h-1l.56-8.08h1.33l1.38,3.91c.34,1,.6,1.88.81,2.72h0c.22-.82.5-1.7.86-2.72l1.44-3.91h1.33l.51,8.08h-1Z"/><path d="M507.57,256.22v8.08h-1.05v-8.08Z"/><path d="M511.51,260.26v-.72h6.19v.72Zm0,2.35v-.72h6.19v.72Z"/><path d="M524.53,264.3v-2.13h-3.62v-.69l3.47-5h1.14v4.85h1.09v.82h-1.09v2.13Zm0-2.95v-2.6q0-.62,0-1.23h0c-.24.46-.43.8-.65,1.16L522,261.33v0Z"/><path d="M532.61,260.32c0,2.65-1,4.11-2.71,4.11-1.52,0-2.56-1.42-2.59-4s1.14-4.06,2.73-4.06S532.61,257.84,532.61,260.32Zm-4.23.12c0,2,.62,3.18,1.58,3.18s1.59-1.26,1.59-3.25-.48-3.18-1.59-3.18C529.05,257.19,528.38,258.32,528.38,260.44Z"/><path d="M252.67,123.93c0-2.86-2.48-4-5.68-5-2.92-1-6-2.28-6-5.72,0-3.12,2.75-5.5,6.46-5.5a11.13,11.13,0,0,1,6.09,1.77L253,110.7a10.06,10.06,0,0,0-5.54-1.76c-3.33,0-5.1,2-5.1,4.14,0,2.59,2.38,3.61,5.54,4.69s6.05,2.35,6.05,6c0,3.3-2.82,5.82-6.86,5.82a11.61,11.61,0,0,1-6.5-1.91l.55-1.22a10.67,10.67,0,0,0,6,1.87C250.49,128.35,252.67,126.31,252.67,123.93Z"/><path d="M272.86,129.27v-10H259.6v10h-1.42V108h1.42v10h13.26V108h1.43v21.25Z"/><path d="M295.81,129.27h-1.46l-2.48-6.63h-10l-2.48,6.63h-1.43L286.06,108h1.76Zm-8.9-20-4.56,12.06h9Z"/><path d="M303.84,121.31l-3,0v7.93h-1.43V108h4.76c5.37,0,8.13,2.51,8.13,6.39C312.34,118.93,309.07,121.24,303.84,121.31Zm.37-12h-3.33v10.74l3,0c4.42-.07,7-1.67,7-5.58C310.84,111.25,308.39,109.31,304.21,109.31Z"/><path class="cls-5" d="M303.58,18.43h0a4.87,4.87,0,0,1,4.87,4.88v9.94a4.88,4.88,0,0,1-4.87,4.88h0a4.88,4.88,0,0,1-4.87-4.88V23.31A4.87,4.87,0,0,1,303.58,18.43Z"/><path class="cls-7" d="M298.71,46.69a4.87,4.87,0,0,1,4.87-4.87h0a4.87,4.87,0,0,1,4.87,4.87V70.18a4.88,4.88,0,0,1-4.87,4.88h0a4.88,4.88,0,0,1-4.87-4.88Z"/><path class="cls-8" d="M261.33,52.9h0a4.88,4.88,0,0,1,4.88,4.87v21a4.88,4.88,0,0,1-4.88,4.87h0a4.87,4.87,0,0,1-4.87-4.87v-21A4.87,4.87,0,0,1,261.33,52.9Z"/><path class="cls-9" d="M289.5,32h0a4.87,4.87,0,0,1,4.87,4.88V75.11A4.87,4.87,0,0,1,289.5,80h0a4.88,4.88,0,0,1-4.88-4.87V36.85A4.88,4.88,0,0,1,289.5,32Z"/><path class="cls-10" d="M261.33,7.35h0a4.88,4.88,0,0,1,4.88,4.88v32.1a4.89,4.89,0,0,1-4.88,4.88h0a4.88,4.88,0,0,1-4.87-4.88V12.23A4.87,4.87,0,0,1,261.33,7.35Z"/><path class="cls-11" d="M289.5,8.58h0a4.88,4.88,0,0,1,4.87,4.88V23.4a4.87,4.87,0,0,1-4.87,4.88h0a4.88,4.88,0,0,1-4.88-4.88V13.46A4.89,4.89,0,0,1,289.5,8.58Z"/><path class="cls-12" d="M275.42,44.28h0a4.87,4.87,0,0,1,4.87,4.88V83.72a4.88,4.88,0,0,1-4.87,4.88h0a4.88,4.88,0,0,1-4.88-4.88V49.16A4.87,4.87,0,0,1,275.42,44.28Z"/><path class="cls-13" d="M275.42,4.89h0a4.87,4.87,0,0,1,4.87,4.87v26a4.87,4.87,0,0,1-4.87,4.88h0a4.87,4.87,0,0,1-4.88-4.88V9.76A4.87,4.87,0,0,1,275.42,4.89Z"/><path class="cls-6" d="M247.25,75.06h0a4.88,4.88,0,0,1-4.87-4.88V60.24a4.87,4.87,0,0,1,4.87-4.88h0a4.87,4.87,0,0,1,4.87,4.88v9.94A4.88,4.88,0,0,1,247.25,75.06Z"/><path class="cls-14" d="M252.12,46.79a4.88,4.88,0,0,1-4.87,4.88h0a4.88,4.88,0,0,1-4.87-4.88V23.31a4.87,4.87,0,0,1,4.87-4.88h0a4.87,4.87,0,0,1,4.87,4.88Z"/><g class="cls-15"><line class="cls-16" x1="216.25" y1="222.6" x2="315.99" y2="222.6"/><polygon points="313.91 207.11 313.91 238.09 329.4 222.6 313.91 207.11"/></g><g class="cls-17"><path d="M246.24,222.15h-3.13v2.92h3.51v.87h-4.56v-8.08h4.38v.87h-3.33v2.56h3.13Z"/><path d="M248.43,220.14l.83,1.24c.22.33.4.61.6.94h0c.19-.34.38-.64.59-.95l.8-1.23h1.15l-2,2.8,2,3h-1.19l-.86-1.31c-.23-.33-.42-.66-.62-1h0c-.19.34-.38.65-.61,1l-.84,1.31h-1.16l2.06-3-2-2.84Z"/><path d="M253.49,222c0-.74,0-1.34,0-1.89h.93l.06,1h0a2.23,2.23,0,0,1,2.06-1.11c1.41,0,2.47,1.18,2.47,2.93,0,2.09-1.28,3.12-2.65,3.12a2,2,0,0,1-1.79-.91h0v3.16h-1Zm1,1.55a2,2,0,0,0,0,.43,1.64,1.64,0,0,0,1.59,1.23c1.11,0,1.76-.91,1.76-2.24,0-1.15-.61-2.14-1.73-2.14a1.65,1.65,0,0,0-1.59,1.29,1.54,1.54,0,0,0-.07.42Z"/><path d="M260.32,217.43h1.06v8.51h-1.06Z"/><path d="M267.23,224.55a9.83,9.83,0,0,0,.08,1.39h-.94l-.09-.73h0a2.19,2.19,0,0,1-1.78.86,1.65,1.65,0,0,1-1.77-1.66c0-1.41,1.24-2.18,3.49-2.16v-.12a1.18,1.18,0,0,0-1.32-1.33,2.74,2.74,0,0,0-1.52.43l-.24-.71A3.7,3.7,0,0,1,265,220c1.78,0,2.21,1.21,2.21,2.36Zm-1-1.57c-1.15,0-2.46.18-2.46,1.3a.93.93,0,0,0,1,1,1.46,1.46,0,0,0,1.42-1,1.06,1.06,0,0,0,0-.33Z"/><path d="M268.94,221.71c0-.61,0-1.09-.05-1.57h.93l.06,1h0a2.15,2.15,0,0,1,1.92-1.08c.8,0,2.05.48,2.05,2.47v3.45h-1.06v-3.35c0-.93-.34-1.71-1.34-1.71a1.54,1.54,0,0,0-1.42,1.08,1.75,1.75,0,0,0-.07.49v3.49h-1.05Z"/><path d="M279.67,224.55a9.74,9.74,0,0,0,.09,1.39h-.95l-.08-.73h0a2.17,2.17,0,0,1-1.77.86,1.66,1.66,0,0,1-1.78-1.66c0-1.41,1.25-2.18,3.49-2.16v-.12a1.18,1.18,0,0,0-1.32-1.33,2.76,2.76,0,0,0-1.52.43l-.24-.71a3.77,3.77,0,0,1,1.92-.5c1.77,0,2.2,1.21,2.2,2.36Zm-1-1.57c-1.16,0-2.46.18-2.46,1.3a.92.92,0,0,0,1,1,1.34,1.34,0,0,0,1.48-1.3Z"/><path d="M282.6,218.74v1.4h1.52v.8H282.6v3.13c0,.72.21,1.13.8,1.13a1.91,1.91,0,0,0,.61-.08l.05.81a3,3,0,0,1-.94.14,1.53,1.53,0,0,1-1.14-.44,2.26,2.26,0,0,1-.41-1.52v-3.17h-.9v-.8h.9v-1.08Z"/><path d="M286.48,218.5a.66.66,0,0,1-1.31,0,.65.65,0,0,1,.66-.66A.63.63,0,0,1,286.48,218.5Zm-1.17,7.44v-5.8h1.05v5.8Z"/><path d="M293.37,223a2.84,2.84,0,0,1-2.89,3.08,2.77,2.77,0,0,1-2.79-3,2.84,2.84,0,0,1,2.88-3.07A2.75,2.75,0,0,1,293.37,223Zm-4.6.06c0,1.27.72,2.23,1.75,2.23s1.77-.95,1.77-2.25c0-1-.5-2.22-1.74-2.22S288.77,222,288.77,223.05Z"/><path d="M294.7,221.71c0-.61,0-1.09-.05-1.57h.94l.06,1h0a2.15,2.15,0,0,1,1.92-1.08c.8,0,2.05.48,2.05,2.47v3.45h-1.05v-3.35c0-.93-.35-1.71-1.35-1.71a1.52,1.52,0,0,0-1.41,1.08,1.45,1.45,0,0,0-.07.49v3.49H294.7Z"/></g><path d="M91.94,157.61c0,2.77-1.69,4.25-3.75,4.25s-3.63-1.66-3.63-4.11,1.58-4.25,3.74-4.25S91.94,155.2,91.94,157.61Zm-6.28.12c0,1.74.93,3.28,2.59,3.28s2.59-1.52,2.59-3.36c0-1.62-.84-3.29-2.58-3.29S85.66,156,85.66,157.73Z"/><path d="M98.16,160.14c0,.61,0,1.14,0,1.59h-.94l-.06-.95h0a2.16,2.16,0,0,1-1.92,1.08c-.91,0-2-.51-2-2.54v-3.39h1v3.2c0,1.1.35,1.86,1.3,1.86A1.51,1.51,0,0,0,97,160a1.49,1.49,0,0,0,.09-.54v-3.55h1.06Z"/><path d="M101.19,154.54v1.39h1.51v.8h-1.51v3.13c0,.72.2,1.13.79,1.13a2.26,2.26,0,0,0,.61-.07l0,.8a3,3,0,0,1-.94.14,1.49,1.49,0,0,1-1.14-.44,2.25,2.25,0,0,1-.41-1.52v-3.17h-.89v-.8h.89v-1.08Z"/><path d="M103.89,157.82c0-.74,0-1.34,0-1.89h.93l.06,1h0a2.26,2.26,0,0,1,2.06-1.11c1.42,0,2.47,1.18,2.47,2.94,0,2.08-1.28,3.11-2.65,3.11A2,2,0,0,1,105,161h0v3.16h-1Zm1,1.55a1.49,1.49,0,0,0,0,.43,1.63,1.63,0,0,0,1.58,1.24c1.12,0,1.76-.92,1.76-2.25,0-1.15-.61-2.14-1.72-2.14a1.66,1.66,0,0,0-1.6,1.29,2,2,0,0,0-.07.42Z"/><path d="M115.57,160.14c0,.61,0,1.14.05,1.59h-.94l-.06-.95h0a2.16,2.16,0,0,1-1.92,1.08c-.91,0-2-.51-2-2.54v-3.39h1v3.2c0,1.1.35,1.86,1.3,1.86a1.51,1.51,0,0,0,1.39-1,1.49,1.49,0,0,0,.1-.54v-3.55h1Z"/><path d="M118.6,154.54v1.39h1.51v.8H118.6v3.13c0,.72.2,1.13.79,1.13a2.21,2.21,0,0,0,.61-.07l0,.8a3,3,0,0,1-.94.14,1.5,1.5,0,0,1-1.14-.44,2.3,2.3,0,0,1-.4-1.52v-3.17h-.9v-.8h.9v-1.08Z"/><path d="M123.45,157.69V157h6.19v.72Zm0,2.35v-.72h6.19V160Z"/><path d="M138.4,157.75c0,2.65-1,4.11-2.71,4.11-1.53,0-2.57-1.42-2.6-4s1.14-4.06,2.73-4.06S138.4,155.27,138.4,157.75Zm-4.24.12c0,2,.63,3.18,1.59,3.18s1.58-1.26,1.58-3.25-.48-3.18-1.58-3.18C134.83,154.62,134.16,155.75,134.16,157.87Z"/><path d="M139.44,161.11a.72.72,0,0,1,.72-.76.76.76,0,1,1-.72.76Z"/><path d="M145.1,161.73V159.6h-3.62v-.69l3.48-5h1.14v4.84h1.09v.82H146.1v2.13Zm0-2.95v-2.6c0-.41,0-.82,0-1.22h0c-.24.45-.43.79-.64,1.15l-1.91,2.65v0Z"/><line class="cls-3" x1="127.53" y1="178.99" x2="127.53" y2="167.6"/><polygon points="129.99 169.59 129.55 170 127.53 167.83 125.52 170 125.08 169.59 127.53 166.95 129.99 169.59"/><line class="cls-3" x1="91.63" y1="283.49" x2="91.63" y2="272.1"/><polygon points="94.09 274.08 93.65 274.49 91.64 272.33 89.62 274.49 89.18 274.08 91.64 271.44 94.09 274.08"/><path d="M80.63,287.59a9.1,9.1,0,0,1,1.91-.18,3.3,3.3,0,0,1,2.21.59,1.69,1.69,0,0,1,.68,1.42,1.91,1.91,0,0,1-1.37,1.78v0a2,2,0,0,1,1.67,2,2.12,2.12,0,0,1-.7,1.62,4,4,0,0,1-2.78.75,12.11,12.11,0,0,1-1.62-.09Zm1.05,3.31h.94c1.09,0,1.74-.59,1.74-1.37s-.71-1.32-1.76-1.32a4.9,4.9,0,0,0-.92.07Zm0,3.86a5.07,5.07,0,0,0,.87.05c1.08,0,2.08-.4,2.08-1.57s-.95-1.56-2.09-1.56h-.86Z"/><path d="M91.18,294.16a9.74,9.74,0,0,0,.08,1.39h-1l-.08-.73h0a2.13,2.13,0,0,1-1.77.86A1.65,1.65,0,0,1,86.64,294c0-1.41,1.25-2.17,3.49-2.16v-.12a1.18,1.18,0,0,0-1.31-1.33,2.77,2.77,0,0,0-1.53.43l-.24-.71a3.77,3.77,0,0,1,1.92-.5c1.78,0,2.21,1.21,2.21,2.36Zm-1-1.57c-1.15,0-2.46.18-2.46,1.31a.93.93,0,0,0,1,1,1.46,1.46,0,0,0,1.43-1,1.06,1.06,0,0,0,0-.33Z"/><path d="M92.74,294.49a3,3,0,0,0,1.4.4c.76,0,1.12-.37,1.12-.86s-.3-.77-1.07-1.06c-1-.38-1.55-.94-1.55-1.64a1.8,1.8,0,0,1,2-1.7,2.63,2.63,0,0,1,1.41.36l-.25.77a2.21,2.21,0,0,0-1.19-.35c-.62,0-1,.36-1,.79s.34.69,1.1,1c1,.38,1.52.88,1.52,1.74,0,1-.8,1.75-2.16,1.75a3.3,3.3,0,0,1-1.63-.4Z"/><path d="M98.22,292.84a1.86,1.86,0,0,0,2,2,3.73,3.73,0,0,0,1.61-.3l.19.75a4.69,4.69,0,0,1-1.94.37,2.69,2.69,0,0,1-2.85-2.93c0-1.76,1-3.12,2.72-3.12a2.44,2.44,0,0,1,2.4,2.72,2.08,2.08,0,0,1,0,.49Zm3.1-.75a1.51,1.51,0,0,0-1.47-1.71,1.73,1.73,0,0,0-1.61,1.71Z"/><path d="M106.19,291.56c0-.69,0-1.27,0-1.81h.93l.05,1.15h0a1.76,1.76,0,0,1,1.62-1.27l.29,0v1a1.34,1.34,0,0,0-.36,0,1.48,1.48,0,0,0-1.42,1.35,3.68,3.68,0,0,0,0,.49v3.09h-1.06Z"/><path d="M114.13,294.16a9.64,9.64,0,0,0,.09,1.39h-1l-.08-.73h0a2.14,2.14,0,0,1-1.77.86A1.65,1.65,0,0,1,109.6,294c0-1.41,1.25-2.17,3.49-2.16v-.12a1.19,1.19,0,0,0-1.32-1.33,2.76,2.76,0,0,0-1.52.43l-.24-.71a3.77,3.77,0,0,1,1.92-.5c1.77,0,2.2,1.21,2.2,2.36Zm-1-1.57c-1.15,0-2.45.18-2.45,1.31a.93.93,0,0,0,1,1,1.46,1.46,0,0,0,1.43-1,1.4,1.4,0,0,0,0-.33Z"/><path d="M117.06,288.36v1.39h1.51v.8h-1.51v3.13c0,.72.21,1.13.79,1.13a2.35,2.35,0,0,0,.62-.07l0,.8a2.88,2.88,0,0,1-.93.14,1.49,1.49,0,0,1-1.14-.44,2.25,2.25,0,0,1-.41-1.52v-3.17h-.9v-.8h.9v-1.08Z"/><path d="M120.28,292.84a1.85,1.85,0,0,0,2,2,3.76,3.76,0,0,0,1.61-.3l.19.75a4.69,4.69,0,0,1-1.94.37,2.7,2.7,0,0,1-2.86-2.93c0-1.76,1-3.12,2.72-3.12a2.44,2.44,0,0,1,2.4,2.72,3,3,0,0,1,0,.49Zm3.09-.75a1.49,1.49,0,0,0-1.46-1.71,1.74,1.74,0,0,0-1.62,1.71Z"/><path d="M127.85,291.51v-.72H134v.72Zm0,2.35v-.72H134v.72Z"/><path d="M142.8,291.57c0,2.65-1,4.11-2.71,4.11-1.52,0-2.57-1.42-2.59-4s1.14-4.06,2.72-4.06S142.8,289.09,142.8,291.57Zm-4.23.12c0,2,.62,3.18,1.58,3.18s1.58-1.26,1.58-3.25-.48-3.18-1.58-3.18C139.24,288.44,138.57,289.57,138.57,291.69Z"/><path d="M143.85,294.93a.72.72,0,0,1,.72-.76.76.76,0,1,1-.72.76Z"/><path d="M148.54,288.74h0l-1.35.73-.2-.8,1.7-.91h.9v7.79h-1Z"/></svg>
